<?xml version="1.0" encoding="UTF-8"?>
<svg width="76.308998mm" height="37.132999mm" version="1.1" viewBox="-1 -1 76.308998 37.132999" xmlns="http://www.w3.org/2000/svg">
 <g fill-opacity="0" stroke-linecap="round" stroke-linejoin="round" stroke-width=".1524">
  <g transform="translate(-54.533801,-104.6433)" stroke="#006464">
   <g fill="none" fill-opacity="0" stroke="#840000" stroke-width=".1524">
    <path d="m64.77 118.11h-0.4064"/>
    <path d="m64.77 115.57h-0.4064"/>
    <path d="m64.77 113.03h-0.4064"/>
    <path d="m64.77 110.49h-0.4064"/>
   </g>
   <g fill="#840000" fill-opacity="1" stroke="#840000" stroke-width=".1524">
    <rect x="63.5" y="117.983" width=".86360002" height=".25400001" rx="0"/>
    <rect x="63.5" y="115.443" width=".86360002" height=".25400001" rx="0"/>
    <rect x="63.5" y="112.903" width=".86360002" height=".25400001" rx="0"/>
    <rect x="63.5" y="110.363" width=".86360002" height=".25400001" rx="0"/>
   </g>
   <g fill-opacity="0" stroke-width=".1524">
    <g fill="#840000" stroke="#840000">
     <path d="m64.77 110.49h3.81"/>
    </g>
    <g fill="#a90000" stroke="#a90000">
     <text x="66.675003" y="110.236" font-size="1.6933px" opacity="0" text-anchor="middle" lengthAdjust="spacingAndGlyphs" textLength="1.4127001">1</text>
     <g class="stroked-text">
      <desc>1</desc>
      <path d="m67.0379 110.0725h-0.7257"/>
      <path d="m66.675 110.0725v-1.27"/>
      <path d="m66.675 108.8025-0.1209 0.1815"/>
      <path d="m66.5541 108.984-0.121 0.1209"/>
      <path d="m66.4331 109.1049-0.1209 0.0605"/>
     </g>
    </g>
    <g fill="#840000" stroke="#840000">
     <path d="m64.77 113.03h3.81"/>
    </g>
    <g fill="#a90000" stroke="#a90000">
     <text x="66.675003" y="112.776" font-size="1.6933px" opacity="0" text-anchor="middle" lengthAdjust="spacingAndGlyphs" textLength="1.4127001">2</text>
     <g class="stroked-text">
      <desc>2</desc>
      <path d="m66.3122 111.4635 0.0604-0.0605"/>
      <path d="m66.3726 111.403 0.121-0.0605"/>
      <path d="m66.4936 111.3425h0.3024"/>
      <path d="m66.796 111.3425 0.1209 0.0605"/>
      <path d="m66.9169 111.403 0.0605 0.0605"/>
      <path d="m66.9774 111.4635 0.0605 0.1209"/>
      <path d="m67.0379 111.5844v0.121"/>
      <path d="m67.0379 111.7054-0.0605 0.1814"/>
      <path d="m66.9774 111.8868-0.7257 0.7257"/>
      <path d="m66.2517 112.6125h0.7862"/>
     </g>
    </g>
    <g fill="#840000" stroke="#840000">
     <path d="m64.77 115.57h3.81"/>
    </g>
    <g fill="#a90000" stroke="#a90000">
     <text x="66.675003" y="115.316" font-size="1.6933px" opacity="0" text-anchor="middle" lengthAdjust="spacingAndGlyphs" textLength="1.4127001">3</text>
     <g class="stroked-text">
      <desc>3</desc>
      <path d="m66.2517 113.8825h0.7862"/>
      <path d="m67.0379 113.8825-0.4234 0.4838"/>
      <path d="m66.6145 114.3663h0.1815"/>
      <path d="m66.796 114.3663 0.1209 0.0605"/>
      <path d="m66.9169 114.4268 0.0605 0.0605"/>
      <path d="m66.9774 114.4873 0.0605 0.1209"/>
      <path d="m67.0379 114.6082v0.3024"/>
      <path d="m67.0379 114.9106-0.0605 0.121"/>
      <path d="m66.9774 115.0316-0.0605 0.0605"/>
      <path d="m66.9169 115.0921-0.1209 0.0604"/>
      <path d="m66.796 115.1525h-0.3629"/>
      <path d="m66.4331 115.1525-0.1209-0.0604"/>
      <path d="m66.3122 115.0921-0.0605-0.0605"/>
     </g>
    </g>
    <g fill="#840000" stroke="#840000">
     <path d="m64.77 118.11h3.81"/>
    </g>
    <g fill="#a90000" stroke="#a90000">
     <text x="66.675003" y="117.856" font-size="1.6933px" opacity="0" text-anchor="middle" lengthAdjust="spacingAndGlyphs" textLength="1.4127001">4</text>
     <g class="stroked-text">
      <desc>4</desc>
      <path d="m66.9169 116.8459v0.8466"/>
      <path d="m66.6145 116.3621-0.3023 0.9071"/>
      <path d="m66.3122 117.2692h0.7861"/>
     </g>
    </g>
    <g fill="#006464" stroke="#006464">
     <text x="64.135002" y="106.045" font-size="1.6933px" opacity="0" text-anchor="middle" lengthAdjust="spacingAndGlyphs" textLength="2.3803">J1</text>
     <g class="stroked-text">
      <desc>J1</desc>
      <path d="m63.7117 104.7195v0.9072"/>
      <path d="m63.7117 105.6267-0.0605 0.1814"/>
      <path d="m63.6512 105.8081-0.1209 0.121"/>
      <path d="m63.5303 105.9291-0.1815 0.0604"/>
      <path d="m63.3488 105.9895h-0.1209"/>
      <path d="m64.9817 105.9895h-0.7257"/>
      <path d="m64.6188 105.9895v-1.27"/>
      <path d="m64.6188 104.7195-0.1209 0.1815"/>
      <path d="m64.4979 104.901-0.121 0.1209"/>
      <path d="m64.3769 105.0219-0.1209 0.0605"/>
     </g>
     <text x="64.135002" y="108.585" font-size="1.6933px" opacity="0" text-anchor="middle" lengthAdjust="spacingAndGlyphs" textLength="17.075701">Conn_01x04_Male</text>
     <g class="stroked-text">
      <desc>Conn_01x04_Male</desc>
      <path d="m56.7268 108.4086-0.0604 0.0605"/>
      <path d="m56.6664 108.4691-0.1815 0.0604"/>
      <path d="m56.4849 108.5295h-0.1209"/>
      <path d="m56.364 108.5295-0.1814-0.0604"/>
      <path d="m56.1826 108.4691-0.121-0.121"/>
      <path d="m56.0616 108.3481-0.0605-0.121"/>
      <path d="m56.0011 108.2271-0.0604-0.2419"/>
      <path d="m55.9407 107.9852v-0.1814"/>
      <path d="m55.9407 107.8038 0.0604-0.2419"/>
      <path d="m56.0011 107.5619 0.0605-0.1209"/>
      <path d="m56.0616 107.441 0.121-0.121"/>
      <path d="m56.1826 107.32 0.1814-0.0605"/>
      <path d="m56.364 107.2595h0.1209"/>
      <path d="m56.4849 107.2595 0.1815 0.0605"/>
      <path d="m56.6664 107.32 0.0604 0.0605"/>
      <path d="m57.4526 108.5295-0.121-0.0604"/>
      <path d="m57.3316 108.4691-0.0605-0.0605"/>
      <path d="m57.2711 108.4086-0.0604-0.121"/>
      <path d="m57.2107 108.2876v-0.3628"/>
      <path d="m57.2107 107.9248 0.0604-0.121"/>
      <path d="m57.2711 107.8038 0.0605-0.0605"/>
      <path d="m57.3316 107.7433 0.121-0.0604"/>
      <path d="m57.4526 107.6829h0.1814"/>
      <path d="m57.634 107.6829 0.1209 0.0604"/>
      <path d="m57.7549 107.7433 0.0605 0.0605"/>
      <path d="m57.8154 107.8038 0.0605 0.121"/>
      <path d="m57.8759 107.9248v0.3628"/>
      <path d="m57.8759 108.2876-0.0605 0.121"/>
      <path d="m57.8154 108.4086-0.0605 0.0605"/>
      <path d="m57.7549 108.4691-0.1209 0.0604"/>
      <path d="m57.634 108.5295h-0.1814"/>
      <path d="m58.4201 107.6829v0.8466"/>
      <path d="m58.4201 107.8038 0.0605-0.0605"/>
      <path d="m58.4806 107.7433 0.121-0.0604"/>
      <path d="m58.6016 107.6829h0.1814"/>
      <path d="m58.783 107.6829 0.1209 0.0604"/>
      <path d="m58.9039 107.7433 0.0605 0.121"/>
      <path d="m58.9644 107.8643v0.6652"/>
      <path d="m59.5691 107.6829v0.8466"/>
      <path d="m59.5691 107.8038 0.0605-0.0605"/>
      <path d="m59.6296 107.7433 0.121-0.0604"/>
      <path d="m59.7506 107.6829h0.1814"/>
      <path d="m59.932 107.6829 0.1209 0.0604"/>
      <path d="m60.0529 107.7433 0.0605 0.121"/>
      <path d="m60.1134 107.8643v0.6652"/>
      <path d="m60.4158 108.6505h0.9676"/>
      <path d="m61.9276 107.2595h0.121"/>
      <path d="m62.0486 107.2595 0.1209 0.0605"/>
      <path d="m62.1695 107.32 0.0605 0.0605"/>
      <path d="m62.23 107.3805 0.0605 0.1209"/>
      <path d="m62.2905 107.5014 0.0605 0.2419"/>
      <path d="m62.351 107.7433v0.3024"/>
      <path d="m62.351 108.0457-0.0605 0.2419"/>
      <path d="m62.2905 108.2876-0.0605 0.121"/>
      <path d="m62.23 108.4086-0.0605 0.0605"/>
      <path d="m62.1695 108.4691-0.1209 0.0604"/>
      <path d="m62.0486 108.5295h-0.121"/>
      <path d="m61.9276 108.5295-0.1209-0.0604"/>
      <path d="m61.8067 108.4691-0.0605-0.0605"/>
      <path d="m61.7462 108.4086-0.0605-0.121"/>
      <path d="m61.6857 108.2876-0.0604-0.2419"/>
      <path d="m61.6253 108.0457v-0.3024"/>
      <path d="m61.6253 107.7433 0.0604-0.2419"/>
      <path d="m61.6857 107.5014 0.0605-0.1209"/>
      <path d="m61.7462 107.3805 0.0605-0.0605"/>
      <path d="m61.8067 107.32 0.1209-0.0605"/>
      <path d="m63.5605 108.5295h-0.7257"/>
      <path d="m63.1976 108.5295v-1.27"/>
      <path d="m63.1976 107.2595-0.1209 0.1815"/>
      <path d="m63.0767 107.441-0.121 0.1209"/>
      <path d="m62.9557 107.5619-0.1209 0.0605"/>
      <path d="m63.9838 108.5295 0.6652-0.8466"/>
      <path d="m63.9838 107.6829 0.6652 0.8466"/>
      <path d="m65.3747 107.2595h0.121"/>
      <path d="m65.4957 107.2595 0.1209 0.0605"/>
      <path d="m65.6166 107.32 0.0605 0.0605"/>
      <path d="m65.6771 107.3805 0.0605 0.1209"/>
      <path d="m65.7376 107.5014 0.0605 0.2419"/>
      <path d="m65.7981 107.7433v0.3024"/>
      <path d="m65.7981 108.0457-0.0605 0.2419"/>
      <path d="m65.7376 108.2876-0.0605 0.121"/>
      <path d="m65.6771 108.4086-0.0605 0.0605"/>
      <path d="m65.6166 108.4691-0.1209 0.0604"/>
      <path d="m65.4957 108.5295h-0.121"/>
      <path d="m65.3747 108.5295-0.1209-0.0604"/>
      <path d="m65.2538 108.4691-0.0605-0.0605"/>
      <path d="m65.1933 108.4086-0.0605-0.121"/>
      <path d="m65.1328 108.2876-0.0604-0.2419"/>
      <path d="m65.0724 108.0457v-0.3024"/>
      <path d="m65.0724 107.7433 0.0604-0.2419"/>
      <path d="m65.1328 107.5014 0.0605-0.1209"/>
      <path d="m65.1933 107.3805 0.0605-0.0605"/>
      <path d="m65.2538 107.32 0.1209-0.0605"/>
      <path d="m66.8866 107.6829v0.8466"/>
      <path d="m66.5842 107.1991-0.3023 0.9071"/>
      <path d="m66.2819 108.1062h0.7861"/>
      <path d="m67.2495 108.6505h0.9676"/>
      <path d="m68.5194 108.5295v-1.27"/>
      <path d="m68.5194 107.2595 0.4234 0.9072"/>
      <path d="m68.9428 108.1667 0.4233-0.9072"/>
      <path d="m69.3661 107.2595v1.27"/>
      <path d="m70.5151 108.5295v-0.6652"/>
      <path d="m70.5151 107.8643-0.0605-0.121"/>
      <path d="m70.4546 107.7433-0.1209-0.0604"/>
      <path d="m70.3337 107.6829h-0.2419"/>
      <path d="m70.0918 107.6829-0.121 0.0604"/>
      <path d="m70.5151 108.4691-0.1209 0.0604"/>
      <path d="m70.3942 108.5295h-0.3024"/>
      <path d="m70.0918 108.5295-0.121-0.0604"/>
      <path d="m69.9708 108.4691-0.0604-0.121"/>
      <path d="m69.9104 108.3481v-0.121"/>
      <path d="m69.9104 108.2271 0.0604-0.1209"/>
      <path d="m69.9708 108.1062 0.121-0.0605"/>
      <path d="m70.0918 108.0457h0.3024"/>
      <path d="m70.3942 108.0457 0.1209-0.0605"/>
      <path d="m71.3013 108.5295-0.121-0.0604"/>
      <path d="m71.1803 108.4691-0.0605-0.121"/>
      <path d="m71.1198 108.3481v-1.0886"/>
      <path d="m72.2688 108.4691-0.1209 0.0604"/>
      <path d="m72.1479 108.5295h-0.2419"/>
      <path d="m71.906 108.5295-0.121-0.0604"/>
      <path d="m71.785 108.4691-0.0604-0.121"/>
      <path d="m71.7246 108.3481v-0.4838"/>
      <path d="m71.7246 107.8643 0.0604-0.121"/>
      <path d="m71.785 107.7433 0.121-0.0604"/>
      <path d="m71.906 107.6829h0.2419"/>
      <path d="m72.1479 107.6829 0.1209 0.0604"/>
      <path d="m72.2688 107.7433 0.0605 0.121"/>
      <path d="m72.3293 107.8643v0.1209"/>
      <path d="m72.3293 107.9852-0.6047 0.121"/>
     </g>
    </g>
   </g>
   <g fill="#840000" stroke="#840000">
    <g fill-opacity="0" stroke-width=".1524">
     <path d="m92.964 125.984a1.016 1.016 0 0 0 2.032 0"/>
    </g>
    <g fill-opacity="1" stroke-width="0">
     <path d="m92.964 125.984a1.016 1.016 0 0 0 2.032 0l-1.016-4e-3z"/>
    </g>
    <g fill-opacity="0" stroke-width=".1524">
     <path d="m92.964 125.984a1.016 1.016 0 0 0 2.032 0"/>
     <path d="m92.964 125.984h2.032" fill="none" stroke="#840000" stroke-linecap="round" stroke-linejoin="round" stroke-width=".1524"/>
     <path d="m92.964 125.476h2.032" fill="none" stroke="#840000" stroke-linecap="round" stroke-linejoin="round" stroke-width=".1524"/>
     <path d="m94.996 125.476a1.016 1.016 0 0 0-2.032 0"/>
    </g>
    <g fill-opacity="1" stroke-width="0">
     <path d="m94.996 125.476a1.016 1.016 0 0 0-2.032 0l1.016 4e-3z"/>
    </g>
    <g fill-opacity="0" stroke-width=".1524">
     <path d="m94.996 125.476a1.016 1.016 0 0 0-2.032 0"/>
     <path d="m93.98 127v2.54"/>
    </g>
   </g>
   <g fill-opacity="0">
    <g stroke-width=".1524">
     <g fill="#a90000" stroke="#a90000">
      <g transform="rotate(-90,94.234,128.27)">
       <text x="94.234001" y="129.53999" font-size="1.6933px" opacity="0" text-anchor="middle" lengthAdjust="spacingAndGlyphs" textLength="1.4127001">1</text>
      </g>
      <g class="stroked-text">
       <desc>1</desc>
       <path d="m95.5564 127.907v0.7257"/>
       <path d="m95.5564 128.2699h-1.27"/>
       <path d="m94.2864 128.2699 0.1815 0.1209"/>
       <path d="m94.4679 128.3908 0.1209 0.121"/>
       <path d="m94.5888 128.5118 0.0605 0.1209"/>
      </g>
     </g>
     <g fill="#840000" stroke="#840000">
      <path d="m93.98 124.46v-2.54"/>
     </g>
     <g fill="#a90000" stroke="#a90000">
      <g transform="rotate(-90,94.234,123.19)">
       <text x="94.234001" y="124.46" font-size="1.6933px" opacity="0" text-anchor="middle" lengthAdjust="spacingAndGlyphs" textLength="1.4127001">2</text>
      </g>
      <g class="stroked-text">
       <desc>2</desc>
       <path d="m94.4074 123.5527-0.0605-0.0604"/>
       <path d="m94.3469 123.4923-0.0605-0.121"/>
       <path d="m94.2864 123.3713v-0.3024"/>
       <path d="m94.2864 123.0689 0.0605-0.1209"/>
       <path d="m94.3469 122.948 0.0605-0.0605"/>
       <path d="m94.4074 122.8875 0.1209-0.0605"/>
       <path d="m94.5283 122.827h0.121"/>
       <path d="m94.6493 122.827 0.1814 0.0605"/>
       <path d="m94.8307 122.8875 0.7257 0.7257"/>
       <path d="m95.5564 123.6132v-0.7862"/>
      </g>
     </g>
     <g fill="#006464" stroke="#006464">
      <text x="98.354698" y="125.0949" font-size="1.6933px" opacity="0" text-anchor="middle" lengthAdjust="spacingAndGlyphs" textLength="3.6503">JP1</text>
      <g class="stroked-text">
       <desc>JP1</desc>
       <path d="m97.2964 123.7694v0.9072"/>
       <path d="m97.2964 124.6766-0.0605 0.1814"/>
       <path d="m97.2359 124.858-0.1209 0.121"/>
       <path d="m97.115 124.979-0.1815 0.0604"/>
       <path d="m96.9335 125.0394h-0.1209"/>
       <path d="m97.9011 125.0394v-1.27"/>
       <path d="m97.9011 123.7694h0.4838"/>
       <path d="m98.3849 123.7694 0.121 0.0605"/>
       <path d="m98.5059 123.8299 0.0605 0.0605"/>
       <path d="m98.5664 123.8904 0.0604 0.1209"/>
       <path d="m98.6268 124.0113v0.1815"/>
       <path d="m98.6268 124.1928-0.0604 0.1209"/>
       <path d="m98.5664 124.3137-0.0605 0.0605"/>
       <path d="m98.5059 124.3742-0.121 0.0605"/>
       <path d="m98.3849 124.4347h-0.4838"/>
       <path d="m99.8364 125.0394h-0.7257"/>
       <path d="m99.4735 125.0394v-1.27"/>
       <path d="m99.4735 123.7694-0.1209 0.1815"/>
       <path d="m99.3526 123.9509-0.121 0.1209"/>
       <path d="m99.2316 124.0718-0.1209 0.0605"/>
      </g>
      <text x="107.0027" y="127.6349" font-size="1.6933px" opacity="0" text-anchor="middle" lengthAdjust="spacingAndGlyphs" textLength="20.946199">SolderJumper_2_Open</text>
      <g class="stroked-text">
       <desc>SolderJumper_2_Open</desc>
       <path d="m96.8731 127.519 0.1814 0.0604"/>
       <path d="m97.0545 127.5794h0.3024"/>
       <path d="m97.3569 127.5794 0.1209-0.0604"/>
       <path d="m97.4778 127.519 0.0605-0.0605"/>
       <path d="m97.5383 127.4585 0.0605-0.121"/>
       <path d="m97.5988 127.3375v-0.1209"/>
       <path d="m97.5988 127.2166-0.0605-0.121"/>
       <path d="m97.5383 127.0956-0.0605-0.0605"/>
       <path d="m97.4778 127.0351-0.1209-0.0604"/>
       <path d="m97.3569 126.9747-0.2419-0.0605"/>
       <path d="m97.115 126.9142-0.121-0.0605"/>
       <path d="m96.994 126.8537-0.0605-0.0605"/>
       <path d="m96.9335 126.7932-0.0604-0.1209"/>
       <path d="m96.8731 126.6723v-0.121"/>
       <path d="m96.8731 126.5513 0.0604-0.1209"/>
       <path d="m96.9335 126.4304 0.0605-0.0605"/>
       <path d="m96.994 126.3699 0.121-0.0605"/>
       <path d="m97.115 126.3094h0.3023"/>
       <path d="m97.4173 126.3094 0.1815 0.0605"/>
       <path d="m98.3245 127.5794-0.121-0.0604"/>
       <path d="m98.2035 127.519-0.0605-0.0605"/>
       <path d="m98.143 127.4585-0.0604-0.121"/>
       <path d="m98.0826 127.3375v-0.3628"/>
       <path d="m98.0826 126.9747 0.0604-0.121"/>
       <path d="m98.143 126.8537 0.0605-0.0605"/>
       <path d="m98.2035 126.7932 0.121-0.0604"/>
       <path d="m98.3245 126.7328h0.1814"/>
       <path d="m98.5059 126.7328 0.1209 0.0604"/>
       <path d="m98.6268 126.7932 0.0605 0.0605"/>
       <path d="m98.6873 126.8537 0.0605 0.121"/>
       <path d="m98.7478 126.9747v0.3628"/>
       <path d="m98.7478 127.3375-0.0605 0.121"/>
       <path d="m98.6873 127.4585-0.0605 0.0605"/>
       <path d="m98.6268 127.519-0.1209 0.0604"/>
       <path d="m98.5059 127.5794h-0.1814"/>
       <path d="m99.4735 127.5794-0.121-0.0604"/>
       <path d="m99.3525 127.519-0.0605-0.121"/>
       <path d="m99.292 127.398v-1.0886"/>
       <path d="m100.5015 127.5794v-1.27"/>
       <path d="m100.5015 127.519-0.1209 0.0604"/>
       <path d="m100.3806 127.5794h-0.2419"/>
       <path d="m100.1387 127.5794-0.121-0.0604"/>
       <path d="m100.0177 127.519-0.0605-0.0605"/>
       <path d="m99.9572 127.4585-0.0604-0.121"/>
       <path d="m99.8968 127.3375v-0.3628"/>
       <path d="m99.8968 126.9747 0.0604-0.121"/>
       <path d="m99.9572 126.8537 0.0605-0.0605"/>
       <path d="m100.0177 126.7932 0.121-0.0604"/>
       <path d="m100.1387 126.7328h0.2419"/>
       <path d="m100.3806 126.7328 0.1209 0.0604"/>
       <path d="m101.59 127.519-0.1209 0.0604"/>
       <path d="m101.4691 127.5794h-0.2419"/>
       <path d="m101.2272 127.5794-0.121-0.0604"/>
       <path d="m101.1062 127.519-0.0604-0.121"/>
       <path d="m101.0458 127.398v-0.4838"/>
       <path d="m101.0458 126.9142 0.0604-0.121"/>
       <path d="m101.1062 126.7932 0.121-0.0604"/>
       <path d="m101.2272 126.7328h0.2419"/>
       <path d="m101.4691 126.7328 0.1209 0.0604"/>
       <path d="m101.59 126.7932 0.0605 0.121"/>
       <path d="m101.6505 126.9142v0.1209"/>
       <path d="m101.6505 127.0351-0.6047 0.121"/>
       <path d="m102.1948 127.5794v-0.8466"/>
       <path d="m102.1948 126.9747 0.0605-0.121"/>
       <path d="m102.2553 126.8537 0.0605-0.0605"/>
       <path d="m102.3158 126.7932 0.1209-0.0604"/>
       <path d="m102.4367 126.7328h0.121"/>
       <path d="m103.3439 126.3094v0.9072"/>
       <path d="m103.3439 127.2166-0.0605 0.1814"/>
       <path d="m103.2834 127.398-0.1209 0.121"/>
       <path d="m103.1625 127.519-0.1815 0.0604"/>
       <path d="m102.981 127.5794h-0.1209"/>
       <path d="m104.4929 126.7328v0.8466"/>
       <path d="m103.9486 126.7328v0.6652"/>
       <path d="m103.9486 127.398 0.0605 0.121"/>
       <path d="m104.0091 127.519 0.121 0.0604"/>
       <path d="m104.1301 127.5794h0.1814"/>
       <path d="m104.3115 127.5794 0.1209-0.0604"/>
       <path d="m104.4324 127.519 0.0605-0.0605"/>
       <path d="m105.0976 127.5794v-0.8466"/>
       <path d="m105.0976 126.8537 0.0605-0.0605"/>
       <path d="m105.1581 126.7932 0.121-0.0604"/>
       <path d="m105.2791 126.7328h0.1814"/>
       <path d="m105.4605 126.7328 0.1209 0.0604"/>
       <path d="m105.5814 126.7932 0.0605 0.121"/>
       <path d="m105.6419 126.9142v0.6652"/>
       <path d="m105.6419 126.9142 0.0605-0.121"/>
       <path d="m105.7024 126.7932 0.1209-0.0604"/>
       <path d="m105.8233 126.7328h0.1815"/>
       <path d="m106.0048 126.7328 0.1209 0.0604"/>
       <path d="m106.1257 126.7932 0.0605 0.121"/>
       <path d="m106.1862 126.9142v0.6652"/>
       <path d="m106.7909 126.7328v1.27"/>
       <path d="m106.7909 126.7932 0.121-0.0604"/>
       <path d="m106.9119 126.7328h0.2419"/>
       <path d="m107.1538 126.7328 0.1209 0.0604"/>
       <path d="m107.2747 126.7932 0.0605 0.0605"/>
       <path d="m107.3352 126.8537 0.0605 0.121"/>
       <path d="m107.3957 126.9747v0.3628"/>
       <path d="m107.3957 127.3375-0.0605 0.121"/>
       <path d="m107.3352 127.4585-0.0605 0.0605"/>
       <path d="m107.2747 127.519-0.1209 0.0604"/>
       <path d="m107.1538 127.5794h-0.2419"/>
       <path d="m106.9119 127.5794-0.121-0.0604"/>
       <path d="m108.4237 127.519-0.1209 0.0604"/>
       <path d="m108.3028 127.5794h-0.2419"/>
       <path d="m108.0609 127.5794-0.121-0.0604"/>
       <path d="m107.9399 127.519-0.0604-0.121"/>
       <path d="m107.8795 127.398v-0.4838"/>
       <path d="m107.8795 126.9142 0.0604-0.121"/>
       <path d="m107.9399 126.7932 0.121-0.0604"/>
       <path d="m108.0609 126.7328h0.2419"/>
       <path d="m108.3028 126.7328 0.1209 0.0604"/>
       <path d="m108.4237 126.7932 0.0605 0.121"/>
       <path d="m108.4842 126.9142v0.1209"/>
       <path d="m108.4842 127.0351-0.6047 0.121"/>
       <path d="m109.0285 127.5794v-0.8466"/>
       <path d="m109.0285 126.9747 0.0605-0.121"/>
       <path d="m109.089 126.8537 0.0605-0.0605"/>
       <path d="m109.1495 126.7932 0.1209-0.0604"/>
       <path d="m109.2704 126.7328h0.121"/>
       <path d="m109.5124 127.7004h0.9676"/>
       <path d="m110.7219 126.4304 0.0604-0.0605"/>
       <path d="m110.7823 126.3699 0.121-0.0605"/>
       <path d="m110.9033 126.3094h0.3024"/>
       <path d="m111.2057 126.3094 0.1209 0.0605"/>
       <path d="m111.3266 126.3699 0.0605 0.0605"/>
       <path d="m111.3871 126.4304 0.0605 0.1209"/>
       <path d="m111.4476 126.5513v0.121"/>
       <path d="m111.4476 126.6723-0.0605 0.1814"/>
       <path d="m111.3871 126.8537-0.7257 0.7257"/>
       <path d="m110.6614 127.5794h0.7862"/>
       <path d="m111.6895 127.7004h0.9676"/>
       <path d="m113.2013 126.3094h0.2419"/>
       <path d="m113.4432 126.3094 0.121 0.0605"/>
       <path d="m113.5642 126.3699 0.1209 0.121"/>
       <path d="m113.6851 126.4909 0.0605 0.2419"/>
       <path d="m113.7456 126.7328v0.4233"/>
       <path d="m113.7456 127.1561-0.0605 0.2419"/>
       <path d="m113.6851 127.398-0.1209 0.121"/>
       <path d="m113.5642 127.519-0.121 0.0604"/>
       <path d="m113.4432 127.5794h-0.2419"/>
       <path d="m113.2013 127.5794-0.1209-0.0604"/>
       <path d="m113.0804 127.519-0.121-0.121"/>
       <path d="m112.9594 127.398-0.0604-0.2419"/>
       <path d="m112.899 127.1561v-0.4233"/>
       <path d="m112.899 126.7328 0.0604-0.2419"/>
       <path d="m112.9594 126.4909 0.121-0.121"/>
       <path d="m113.0804 126.3699 0.1209-0.0605"/>
       <path d="m114.2899 126.7328v1.27"/>
       <path d="m114.2899 126.7932 0.121-0.0604"/>
       <path d="m114.4109 126.7328h0.2419"/>
       <path d="m114.6528 126.7328 0.1209 0.0604"/>
       <path d="m114.7737 126.7932 0.0605 0.0605"/>
       <path d="m114.8342 126.8537 0.0605 0.121"/>
       <path d="m114.8947 126.9747v0.3628"/>
       <path d="m114.8947 127.3375-0.0605 0.121"/>
       <path d="m114.8342 127.4585-0.0605 0.0605"/>
       <path d="m114.7737 127.519-0.1209 0.0604"/>
       <path d="m114.6528 127.5794h-0.2419"/>
       <path d="m114.4109 127.5794-0.121-0.0604"/>
       <path d="m115.9227 127.519-0.1209 0.0604"/>
       <path d="m115.8018 127.5794h-0.2419"/>
       <path d="m115.5599 127.5794-0.121-0.0604"/>
       <path d="m115.4389 127.519-0.0604-0.121"/>
       <path d="m115.3785 127.398v-0.4838"/>
       <path d="m115.3785 126.9142 0.0604-0.121"/>
       <path d="m115.4389 126.7932 0.121-0.0604"/>
       <path d="m115.5599 126.7328h0.2419"/>
       <path d="m115.8018 126.7328 0.1209 0.0604"/>
       <path d="m115.9227 126.7932 0.0605 0.121"/>
       <path d="m115.9832 126.9142v0.1209"/>
       <path d="m115.9832 127.0351-0.6047 0.121"/>
       <path d="m116.5275 126.7328v0.8466"/>
       <path d="m116.5275 126.8537 0.0605-0.0605"/>
       <path d="m116.588 126.7932 0.121-0.0604"/>
       <path d="m116.709 126.7328h0.1814"/>
       <path d="m116.8904 126.7328 0.1209 0.0604"/>
       <path d="m117.0113 126.7932 0.0605 0.121"/>
       <path d="m117.0718 126.9142v0.6652"/>
      </g>
     </g>
     <g fill="#840000" stroke="#840000">
      <line x1="63.5" x2="63.5" y1="127" y2="139.7"/>
      <line x1="54.610001" x2="63.5" y1="139.7" y2="139.7"/>
      <line x1="54.610001" x2="63.5" y1="127" y2="127"/>
      <line x1="54.610001" x2="54.610001" y1="127" y2="139.7"/>
      <path d="m63.5 129.54h5.08"/>
     </g>
     <g fill="#006464" stroke="#006464">
      <text x="62.484001" y="130.175" font-size="1.6933px" opacity="0" text-anchor="end" lengthAdjust="spacingAndGlyphs" textLength="6.9763999">SLEEVE</text>
      <g class="stroked-text">
       <desc>SLEEVE</desc>
       <path d="m55.8525 130.0591 0.1814 0.0604"/>
       <path d="m56.0339 130.1195h0.3024"/>
       <path d="m56.3363 130.1195 0.1209-0.0604"/>
       <path d="m56.4572 130.0591 0.0605-0.0605"/>
       <path d="m56.5177 129.9986 0.0605-0.121"/>
       <path d="m56.5782 129.8776v-0.1209"/>
       <path d="m56.5782 129.7567-0.0605-0.121"/>
       <path d="m56.5177 129.6357-0.0605-0.0605"/>
       <path d="m56.4572 129.5752-0.1209-0.0604"/>
       <path d="m56.3363 129.5148-0.2419-0.0605"/>
       <path d="m56.0944 129.4543-0.121-0.0605"/>
       <path d="m55.9734 129.3938-0.0605-0.0605"/>
       <path d="m55.9129 129.3333-0.0604-0.1209"/>
       <path d="m55.8525 129.2124v-0.121"/>
       <path d="m55.8525 129.0914 0.0604-0.1209"/>
       <path d="m55.9129 128.9705 0.0605-0.0605"/>
       <path d="m55.9734 128.91 0.121-0.0605"/>
       <path d="m56.0944 128.8495h0.3023"/>
       <path d="m56.3967 128.8495 0.1815 0.0605"/>
       <path d="m57.7272 130.1195h-0.6048"/>
       <path d="m57.1224 130.1195v-1.27"/>
       <path d="m58.1505 129.4543h0.4234"/>
       <path d="m58.7553 130.1195h-0.6048"/>
       <path d="m58.1505 130.1195v-1.27"/>
       <path d="m58.1505 128.8495h0.6048"/>
       <path d="m59.2995 129.4543h0.4234"/>
       <path d="m59.9043 130.1195h-0.6048"/>
       <path d="m59.2995 130.1195v-1.27"/>
       <path d="m59.2995 128.8495h0.6048"/>
       <path d="m60.2671 128.8495 0.4233 1.27"/>
       <path d="m60.6904 130.1195 0.4234-1.27"/>
       <path d="m61.5371 129.4543h0.4234"/>
       <path d="m62.1419 130.1195h-0.6048"/>
       <path d="m61.5371 130.1195v-1.27"/>
       <path d="m61.5371 128.8495h0.6048"/>
      </g>
     </g>
     <g fill="#a90000" stroke="#a90000">
      <text x="66.040001" y="129.286" font-size="1.6933px" opacity="0" text-anchor="middle" lengthAdjust="spacingAndGlyphs" textLength="1.4127001">1</text>
      <g class="stroked-text">
       <desc>1</desc>
       <path d="m66.4029 129.1225h-0.7257"/>
       <path d="m66.04 129.1225v-1.27"/>
       <path d="m66.04 127.8525-0.1209 0.1815"/>
       <path d="m65.9191 128.034-0.121 0.1209"/>
       <path d="m65.7981 128.1549-0.1209 0.0605"/>
      </g>
     </g>
     <g fill="#840000" stroke="#840000">
      <path d="m63.5 137.16h5.08"/>
     </g>
     <g fill="#006464" stroke="#006464">
      <text x="62.484001" y="137.795" font-size="1.6933px" opacity="0" text-anchor="end" lengthAdjust="spacingAndGlyphs" textLength="3.0455999">TIP</text>
      <g class="stroked-text">
       <desc>TIP</desc>
       <path d="m59.6623 136.4695h0.7257"/>
       <path d="m60.0252 137.7395v-1.27"/>
       <path d="m60.8113 137.7395v-1.27"/>
       <path d="m61.4161 137.7395v-1.27"/>
       <path d="m61.4161 136.4695h0.4838"/>
       <path d="m61.8999 136.4695 0.121 0.0605"/>
       <path d="m62.0209 136.53 0.0605 0.0605"/>
       <path d="m62.0814 136.5905 0.0604 0.1209"/>
       <path d="m62.1418 136.7114v0.1815"/>
       <path d="m62.1418 136.8929-0.0604 0.1209"/>
       <path d="m62.0814 137.0138-0.0605 0.0605"/>
       <path d="m62.0209 137.0743-0.121 0.0605"/>
       <path d="m61.8999 137.1348h-0.4838"/>
      </g>
     </g>
     <g fill="#a90000" stroke="#a90000">
      <text x="66.040001" y="136.90601" font-size="1.6933px" opacity="0" text-anchor="middle" lengthAdjust="spacingAndGlyphs" textLength="1.4127001">2</text>
      <g class="stroked-text">
       <desc>2</desc>
       <path d="m65.6772 135.5935 0.0604-0.0605"/>
       <path d="m65.7376 135.533 0.121-0.0605"/>
       <path d="m65.8586 135.4725h0.3024"/>
       <path d="m66.161 135.4725 0.1209 0.0605"/>
       <path d="m66.2819 135.533 0.0605 0.0605"/>
       <path d="m66.3424 135.5935 0.0605 0.1209"/>
       <path d="m66.4029 135.7144v0.121"/>
       <path d="m66.4029 135.8354-0.0605 0.1814"/>
       <path d="m66.3424 136.0168-0.7257 0.7257"/>
       <path d="m65.6167 136.7425h0.7862"/>
      </g>
     </g>
     <g fill="#840000" stroke="#840000">
      <path d="m63.5 134.62h5.08"/>
     </g>
     <g fill="#006464" stroke="#006464">
      <text x="62.484001" y="135.255" font-size="1.6933px" opacity="0" text-anchor="end" lengthAdjust="spacingAndGlyphs" textLength="5.888">RING1</text>
      <g class="stroked-text">
       <desc>RING1</desc>
       <path d="m57.727 135.1995-0.4233-0.6047"/>
       <path d="m57.0013 135.1995v-1.27"/>
       <path d="m57.0013 133.9295h0.4838"/>
       <path d="m57.4851 133.9295 0.121 0.0605"/>
       <path d="m57.6061 133.99 0.0605 0.0605"/>
       <path d="m57.6666 134.0505 0.0604 0.1209"/>
       <path d="m57.727 134.1714v0.1815"/>
       <path d="m57.727 134.3529-0.0604 0.1209"/>
       <path d="m57.6666 134.4738-0.0605 0.0605"/>
       <path d="m57.6061 134.5343-0.121 0.0605"/>
       <path d="m57.4851 134.5948h-0.4838"/>
       <path d="m58.2713 135.1995v-1.27"/>
       <path d="m58.8761 135.1995v-1.27"/>
       <path d="m58.8761 133.9295 0.7257 1.27"/>
       <path d="m59.6018 135.1995v-1.27"/>
       <path d="m60.8719 133.99-0.121-0.0605"/>
       <path d="m60.7509 133.9295h-0.1814"/>
       <path d="m60.5695 133.9295-0.1814 0.0605"/>
       <path d="m60.3881 133.99-0.121 0.121"/>
       <path d="m60.2671 134.111-0.0605 0.1209"/>
       <path d="m60.2066 134.2319-0.0604 0.2419"/>
       <path d="m60.1462 134.4738v0.1814"/>
       <path d="m60.1462 134.6552 0.0604 0.2419"/>
       <path d="m60.2066 134.8971 0.0605 0.121"/>
       <path d="m60.2671 135.0181 0.121 0.121"/>
       <path d="m60.3881 135.1391 0.1814 0.0604"/>
       <path d="m60.5695 135.1995h0.1209"/>
       <path d="m60.6904 135.1995 0.1815-0.0604"/>
       <path d="m60.8719 135.1391 0.0604-0.0605"/>
       <path d="m60.9323 135.0786v-0.4234"/>
       <path d="m60.9323 134.6552h-0.2419"/>
       <path d="m62.1419 135.1995h-0.7257"/>
       <path d="m61.779 135.1995v-1.27"/>
       <path d="m61.779 133.9295-0.1209 0.1815"/>
       <path d="m61.6581 134.111-0.121 0.1209"/>
       <path d="m61.5371 134.2319-0.1209 0.0605"/>
      </g>
     </g>
     <g fill="#a90000" stroke="#a90000">
      <text x="66.040001" y="134.366" font-size="1.6933px" opacity="0" text-anchor="middle" lengthAdjust="spacingAndGlyphs" textLength="1.4127001">3</text>
      <g class="stroked-text">
       <desc>3</desc>
       <path d="m65.6167 132.9325h0.7862"/>
       <path d="m66.4029 132.9325-0.4234 0.4838"/>
       <path d="m65.9795 133.4163h0.1815"/>
       <path d="m66.161 133.4163 0.1209 0.0605"/>
       <path d="m66.2819 133.4768 0.0605 0.0605"/>
       <path d="m66.3424 133.5373 0.0605 0.1209"/>
       <path d="m66.4029 133.6582v0.3024"/>
       <path d="m66.4029 133.9606-0.0605 0.121"/>
       <path d="m66.3424 134.0816-0.0605 0.0605"/>
       <path d="m66.2819 134.1421-0.1209 0.0604"/>
       <path d="m66.161 134.2025h-0.3629"/>
       <path d="m65.7981 134.2025-0.1209-0.0604"/>
       <path d="m65.6772 134.1421-0.0605-0.0605"/>
      </g>
     </g>
     <g fill="#840000" stroke="#840000">
      <path d="m63.5 132.08h5.08"/>
     </g>
     <g fill="#006464" stroke="#006464">
      <text x="62.484001" y="132.715" font-size="1.6933px" opacity="0" text-anchor="end" lengthAdjust="spacingAndGlyphs" textLength="5.888">RING2</text>
      <g class="stroked-text">
       <desc>RING2</desc>
       <path d="m57.727 132.6595-0.4233-0.6047"/>
       <path d="m57.0013 132.6595v-1.27"/>
       <path d="m57.0013 131.3895h0.4838"/>
       <path d="m57.4851 131.3895 0.121 0.0605"/>
       <path d="m57.6061 131.45 0.0605 0.0605"/>
       <path d="m57.6666 131.5105 0.0604 0.1209"/>
       <path d="m57.727 131.6314v0.1815"/>
       <path d="m57.727 131.8129-0.0604 0.1209"/>
       <path d="m57.6666 131.9338-0.0605 0.0605"/>
       <path d="m57.6061 131.9943-0.121 0.0605"/>
       <path d="m57.4851 132.0548h-0.4838"/>
       <path d="m58.2713 132.6595v-1.27"/>
       <path d="m58.8761 132.6595v-1.27"/>
       <path d="m58.8761 131.3895 0.7257 1.27"/>
       <path d="m59.6018 132.6595v-1.27"/>
       <path d="m60.8719 131.45-0.121-0.0605"/>
       <path d="m60.7509 131.3895h-0.1814"/>
       <path d="m60.5695 131.3895-0.1814 0.0605"/>
       <path d="m60.3881 131.45-0.121 0.121"/>
       <path d="m60.2671 131.571-0.0605 0.1209"/>
       <path d="m60.2066 131.6919-0.0604 0.2419"/>
       <path d="m60.1462 131.9338v0.1814"/>
       <path d="m60.1462 132.1152 0.0604 0.2419"/>
       <path d="m60.2066 132.3571 0.0605 0.121"/>
       <path d="m60.2671 132.4781 0.121 0.121"/>
       <path d="m60.3881 132.5991 0.1814 0.0604"/>
       <path d="m60.5695 132.6595h0.1209"/>
       <path d="m60.6904 132.6595 0.1815-0.0604"/>
       <path d="m60.8719 132.5991 0.0604-0.0605"/>
       <path d="m60.9323 132.5386v-0.4234"/>
       <path d="m60.9323 132.1152h-0.2419"/>
       <path d="m61.4162 131.5105 0.0604-0.0605"/>
       <path d="m61.4766 131.45 0.121-0.0605"/>
       <path d="m61.5976 131.3895h0.3024"/>
       <path d="m61.9 131.3895 0.1209 0.0605"/>
       <path d="m62.0209 131.45 0.0605 0.0605"/>
       <path d="m62.0814 131.5105 0.0605 0.1209"/>
       <path d="m62.1419 131.6314v0.121"/>
       <path d="m62.1419 131.7524-0.0605 0.1814"/>
       <path d="m62.0814 131.9338-0.7257 0.7257"/>
       <path d="m61.3557 132.6595h0.7862"/>
      </g>
     </g>
     <g fill="#a90000" stroke="#a90000">
      <text x="66.040001" y="131.826" font-size="1.6933px" opacity="0" text-anchor="middle" lengthAdjust="spacingAndGlyphs" textLength="1.4127001">4</text>
      <g class="stroked-text">
       <desc>4</desc>
       <path d="m66.2819 130.8159v0.8466"/>
       <path d="m65.9795 130.3321-0.3023 0.9071"/>
       <path d="m65.6772 131.2392h0.7861"/>
      </g>
     </g>
     <g fill="#006464" stroke="#006464">
      <text x="59.054901" y="122.682" font-size="2.032px" opacity="0" text-anchor="middle" lengthAdjust="spacingAndGlyphs" textLength="2.7649">J2</text>
      <g class="stroked-text">
       <desc>J2</desc>
       <path d="m58.5469 121.093v1.0886"/>
       <path d="m58.5469 122.1816-0.0725 0.2177"/>
       <path d="m58.4744 122.3993-0.1452 0.1452"/>
       <path d="m58.3292 122.5445-0.2177 0.0725"/>
       <path d="m58.1115 122.617h-0.1451"/>
       <path d="m59.2 121.2382 0.0726-0.0726"/>
       <path d="m59.2726 121.1656 0.1452-0.0726"/>
       <path d="m59.4178 121.093h0.3628"/>
       <path d="m59.7806 121.093 0.1452 0.0726"/>
       <path d="m59.9258 121.1656 0.0725 0.0726"/>
       <path d="m59.9983 121.2382 0.0726 0.1451"/>
       <path d="m60.0709 121.3833v0.1452"/>
       <path d="m60.0709 121.5285-0.0726 0.2177"/>
       <path d="m59.9983 121.7462-0.8708 0.8708"/>
       <path d="m59.1275 122.617h0.9434"/>
      </g>
      <text x="59.054901" y="126.492" font-size="2.032px" opacity="0" text-anchor="middle" lengthAdjust="spacingAndGlyphs" textLength="5.8129001">TRRS</text>
      <g class="stroked-text">
       <desc>TRRS</desc>
       <path d="m56.3698 124.903h0.8709"/>
       <path d="m56.8052 126.427v-1.524"/>
       <path d="m58.6195 126.427-0.508-0.7257"/>
       <path d="m57.7486 126.427v-1.524"/>
       <path d="m57.7486 124.903h0.5806"/>
       <path d="m58.3292 124.903 0.1451 0.0726"/>
       <path d="m58.4743 124.9756 0.0726 0.0726"/>
       <path d="m58.5469 125.0482 0.0726 0.1451"/>
       <path d="m58.6195 125.1933v0.2177"/>
       <path d="m58.6195 125.411-0.0726 0.1452"/>
       <path d="m58.5469 125.5562-0.0726 0.0725"/>
       <path d="m58.4743 125.6287-0.1451 0.0726"/>
       <path d="m58.3292 125.7013h-0.5806"/>
       <path d="m60.1435 126.427-0.508-0.7257"/>
       <path d="m59.2726 126.427v-1.524"/>
       <path d="m59.2726 124.903h0.5806"/>
       <path d="m59.8532 124.903 0.1451 0.0726"/>
       <path d="m59.9983 124.9756 0.0726 0.0726"/>
       <path d="m60.0709 125.0482 0.0726 0.1451"/>
       <path d="m60.1435 125.1933v0.2177"/>
       <path d="m60.1435 125.411-0.0726 0.1452"/>
       <path d="m60.0709 125.5562-0.0726 0.0725"/>
       <path d="m59.9983 125.6287-0.1451 0.0726"/>
       <path d="m59.8532 125.7013h-0.5806"/>
       <path d="m60.724 126.3545 0.2178 0.0725"/>
       <path d="m60.9418 126.427h0.3628"/>
       <path d="m61.3046 126.427 0.1452-0.0725"/>
       <path d="m61.4498 126.3545 0.0725-0.0726"/>
       <path d="m61.5223 126.2819 0.0726-0.1452"/>
       <path d="m61.5949 126.1367v-0.1451"/>
       <path d="m61.5949 125.9916-0.0726-0.1451"/>
       <path d="m61.5223 125.8465-0.0725-0.0726"/>
       <path d="m61.4498 125.7739-0.1452-0.0726"/>
       <path d="m61.3046 125.7013-0.2903-0.0726"/>
       <path d="m61.0143 125.6287-0.1451-0.0725"/>
       <path d="m60.8692 125.5562-0.0726-0.0726"/>
       <path d="m60.7966 125.4836-0.0726-0.1451"/>
       <path d="m60.724 125.3385v-0.1452"/>
       <path d="m60.724 125.1933 0.0726-0.1451"/>
       <path d="m60.7966 125.0482 0.0726-0.0726"/>
       <path d="m60.8692 124.9756 0.1451-0.0726"/>
       <path d="m61.0143 124.903h0.3629"/>
       <path d="m61.3772 124.903 0.2177 0.0726"/>
      </g>
     </g>
     <g stroke="#840000">
      <path d="m114.3 110.49h1.27v-1.27l1.27 1.27-1.27 1.27v-1.27" fill="none" stroke="#840000" stroke-linecap="round" stroke-linejoin="round" stroke-width=".1524"/>
     </g>
     <g fill="#006464" stroke="#006464">
      <text x="120.1564" y="111.1249" font-size="1.6933px" opacity="0" text-anchor="middle" lengthAdjust="spacingAndGlyphs" textLength="4.0737">GND</text>
      <g class="stroked-text">
       <desc>GND</desc>
       <path d="m119.1888 109.8599-0.121-0.0605"/>
       <path d="m119.0678 109.7994h-0.1814"/>
       <path d="m118.8864 109.7994-0.1814 0.0605"/>
       <path d="m118.705 109.8599-0.121 0.121"/>
       <path d="m118.584 109.9809-0.0605 0.1209"/>
       <path d="m118.5235 110.1018-0.0604 0.2419"/>
       <path d="m118.4631 110.3437v0.1814"/>
       <path d="m118.4631 110.5251 0.0604 0.2419"/>
       <path d="m118.5235 110.767 0.0605 0.121"/>
       <path d="m118.584 110.888 0.121 0.121"/>
       <path d="m118.705 111.009 0.1814 0.0604"/>
       <path d="m118.8864 111.0694h0.1209"/>
       <path d="m119.0073 111.0694 0.1815-0.0604"/>
       <path d="m119.1888 111.009 0.0604-0.0605"/>
       <path d="m119.2492 110.9485v-0.4234"/>
       <path d="m119.2492 110.5251h-0.2419"/>
       <path d="m119.7935 111.0694v-1.27"/>
       <path d="m119.7935 109.7994 0.7257 1.27"/>
       <path d="m120.5192 111.0694v-1.27"/>
       <path d="m121.124 111.0694v-1.27"/>
       <path d="m121.124 109.7994h0.3024"/>
       <path d="m121.4264 109.7994 0.1814 0.0605"/>
       <path d="m121.6078 109.8599 0.121 0.121"/>
       <path d="m121.7288 109.9809 0.0605 0.1209"/>
       <path d="m121.7893 110.1018 0.0604 0.2419"/>
       <path d="m121.8497 110.3437v0.1814"/>
       <path d="m121.8497 110.5251-0.0604 0.2419"/>
       <path d="m121.7893 110.767-0.0605 0.121"/>
       <path d="m121.7288 110.888-0.121 0.121"/>
       <path d="m121.6078 111.009-0.1814 0.0604"/>
       <path d="m121.4264 111.0694h-0.3024"/>
      </g>
     </g>
     <g fill="none" stroke="#840000">
      <path d="m115.57 136.398 1.27 0.762"/>
      <path d="m114.3 137.16h2.54"/>
      <path d="m116.84 137.16-1.27 0.762"/>
     </g>
     <g fill="#006464" stroke="#006464">
      <text x="121.0636" y="137.79491" font-size="1.6933px" opacity="0" text-anchor="middle" lengthAdjust="spacingAndGlyphs" textLength="5.888">+3.3V</text>
      <g class="stroked-text">
       <desc>+3.3V</desc>
       <path d="m118.5235 137.2556h0.9677"/>
       <path d="m119.0073 137.7394v-0.9676"/>
       <path d="m119.975 136.4694h0.7862"/>
       <path d="m120.7612 136.4694-0.4234 0.4838"/>
       <path d="m120.3378 136.9532h0.1815"/>
       <path d="m120.5193 136.9532 0.1209 0.0605"/>
       <path d="m120.6402 137.0137 0.0605 0.0605"/>
       <path d="m120.7007 137.0742 0.0605 0.1209"/>
       <path d="m120.7612 137.1951v0.3024"/>
       <path d="m120.7612 137.4975-0.0605 0.121"/>
       <path d="m120.7007 137.6185-0.0605 0.0605"/>
       <path d="m120.6402 137.679-0.1209 0.0604"/>
       <path d="m120.5193 137.7394h-0.3629"/>
       <path d="m120.1564 137.7394-0.1209-0.0604"/>
       <path d="m120.0355 137.679-0.0605-0.0605"/>
       <path d="m121.3054 137.6185 0.0605 0.0605"/>
       <path d="m121.3659 137.679-0.0605 0.0604"/>
       <path d="m121.3054 137.7394-0.0604-0.0604"/>
       <path d="m121.245 137.679 0.0604-0.0605"/>
       <path d="m121.3054 137.6185v0.1209"/>
       <path d="m121.7893 136.4694h0.7862"/>
       <path d="m122.5755 136.4694-0.4234 0.4838"/>
       <path d="m122.1521 136.9532h0.1815"/>
       <path d="m122.3336 136.9532 0.1209 0.0605"/>
       <path d="m122.4545 137.0137 0.0605 0.0605"/>
       <path d="m122.515 137.0742 0.0605 0.1209"/>
       <path d="m122.5755 137.1951v0.3024"/>
       <path d="m122.5755 137.4975-0.0605 0.121"/>
       <path d="m122.515 137.6185-0.0605 0.0605"/>
       <path d="m122.4545 137.679-0.1209 0.0604"/>
       <path d="m122.3336 137.7394h-0.3629"/>
       <path d="m121.9707 137.7394-0.1209-0.0604"/>
       <path d="m121.8498 137.679-0.0605-0.0605"/>
       <path d="m122.9383 136.4694 0.4233 1.27"/>
       <path d="m123.3616 137.7394 0.4234-1.27"/>
      </g>
     </g>
    </g>
    <g fill="#840000" stroke="#840000" stroke-width=".254">
     <rect x="92.963997" y="130.81" width="2.0320001" height="5.0799999" rx="0"/>
    </g>
    <g fill="#840000" stroke="#840000" stroke-width=".1524">
     <path d="m93.98 130.81v-1.27"/>
     <path d="m93.98 135.89v1.27"/>
    </g>
    <g fill="#006464" stroke="#006464" stroke-width=".1524">
     <text x="97.870903" y="132.7149" font-size="1.6933px" opacity="0" text-anchor="middle" lengthAdjust="spacingAndGlyphs" textLength="2.6826999">R1</text>
     <g class="stroked-text">
      <desc>R1</desc>
      <path d="m97.6592 132.6594-0.4233-0.6047"/>
      <path d="m96.9335 132.6594v-1.27"/>
      <path d="m96.9335 131.3894h0.4838"/>
      <path d="m97.4173 131.3894 0.121 0.0605"/>
      <path d="m97.5383 131.4499 0.0605 0.0605"/>
      <path d="m97.5988 131.5104 0.0604 0.1209"/>
      <path d="m97.6592 131.6313v0.1815"/>
      <path d="m97.6592 131.8128-0.0604 0.1209"/>
      <path d="m97.5988 131.9337-0.0605 0.0605"/>
      <path d="m97.5383 131.9942-0.121 0.0605"/>
      <path d="m97.4173 132.0547h-0.4838"/>
      <path d="m98.8688 132.6594h-0.7257"/>
      <path d="m98.5059 132.6594v-1.27"/>
      <path d="m98.5059 131.3894-0.1209 0.1815"/>
      <path d="m98.385 131.5709-0.121 0.1209"/>
      <path d="m98.264 131.6918-0.1209 0.0605"/>
     </g>
     <text x="98.657097" y="135.2549" font-size="1.6933px" opacity="0" text-anchor="middle" lengthAdjust="spacingAndGlyphs" textLength="4.2550998">4.7k</text>
     <g class="stroked-text">
      <desc>4.7k</desc>
      <path d="m97.4778 134.3528v0.8466"/>
      <path d="m97.1754 133.869-0.3023 0.9071"/>
      <path d="m96.8731 134.7761h0.7861"/>
      <path d="m98.143 135.0785 0.0605 0.0605"/>
      <path d="m98.2035 135.139-0.0605 0.0604"/>
      <path d="m98.143 135.1994-0.0604-0.0604"/>
      <path d="m98.0826 135.139 0.0604-0.0605"/>
      <path d="m98.143 135.0785v0.1209"/>
      <path d="m98.6269 133.9294h0.8466"/>
      <path d="m99.4735 133.9294-0.5442 1.27"/>
      <path d="m99.9573 135.1994v-1.27"/>
      <path d="m100.0783 134.7156 0.3628 0.4838"/>
      <path d="m100.4411 134.3528-0.4838 0.4838"/>
     </g>
    </g>
    <g fill="#840000" stroke="#840000" stroke-width=".254">
     <rect x="104.394" y="130.81" width="2.0320001" height="5.0799999" rx="0"/>
    </g>
    <g fill="#840000" stroke="#840000" stroke-width=".1524">
     <path d="m105.41 130.81v-1.27"/>
     <path d="m105.41 135.89v1.27"/>
    </g>
    <g fill="#006464" stroke="#006464" stroke-width=".1524">
     <text x="109.3009" y="132.7149" font-size="1.6933px" opacity="0" text-anchor="middle" lengthAdjust="spacingAndGlyphs" textLength="2.6826999">R2</text>
     <g class="stroked-text">
      <desc>R2</desc>
      <path d="m109.0892 132.6594-0.4233-0.6047"/>
      <path d="m108.3635 132.6594v-1.27"/>
      <path d="m108.3635 131.3894h0.4838"/>
      <path d="m108.8473 131.3894 0.121 0.0605"/>
      <path d="m108.9683 131.4499 0.0605 0.0605"/>
      <path d="m109.0288 131.5104 0.0604 0.1209"/>
      <path d="m109.0892 131.6313v0.1815"/>
      <path d="m109.0892 131.8128-0.0604 0.1209"/>
      <path d="m109.0288 131.9337-0.0605 0.0605"/>
      <path d="m108.9683 131.9942-0.121 0.0605"/>
      <path d="m108.8473 132.0547h-0.4838"/>
      <path d="m109.5731 131.5104 0.0604-0.0605"/>
      <path d="m109.6335 131.4499 0.121-0.0605"/>
      <path d="m109.7545 131.3894h0.3024"/>
      <path d="m110.0569 131.3894 0.1209 0.0605"/>
      <path d="m110.1778 131.4499 0.0605 0.0605"/>
      <path d="m110.2383 131.5104 0.0605 0.1209"/>
      <path d="m110.2988 131.6313v0.121"/>
      <path d="m110.2988 131.7523-0.0605 0.1814"/>
      <path d="m110.2383 131.9337-0.7257 0.7257"/>
      <path d="m109.5126 132.6594h0.7862"/>
     </g>
     <text x="110.0871" y="135.2549" font-size="1.6933px" opacity="0" text-anchor="middle" lengthAdjust="spacingAndGlyphs" textLength="4.2550998">4.7k</text>
     <g class="stroked-text">
      <desc>4.7k</desc>
      <path d="m108.9078 134.3528v0.8466"/>
      <path d="m108.6054 133.869-0.3023 0.9071"/>
      <path d="m108.3031 134.7761h0.7861"/>
      <path d="m109.573 135.0785 0.0605 0.0605"/>
      <path d="m109.6335 135.139-0.0605 0.0604"/>
      <path d="m109.573 135.1994-0.0604-0.0604"/>
      <path d="m109.5126 135.139 0.0604-0.0605"/>
      <path d="m109.573 135.0785v0.1209"/>
      <path d="m110.0569 133.9294h0.8466"/>
      <path d="m110.9035 133.9294-0.5442 1.27"/>
      <path d="m111.3873 135.1994v-1.27"/>
      <path d="m111.5083 134.7156 0.3628 0.4838"/>
      <path d="m111.8711 134.3528-0.4838 0.4838"/>
     </g>
    </g>
   </g>
   <g fill="#840000" stroke="#840000">
    <g fill-opacity="0" stroke-width=".1524">
     <path d="m104.394 122.174a1.016 1.016 0 0 0 2.032 0"/>
    </g>
    <g fill-opacity="1" stroke-width="0">
     <path d="m104.394 122.174a1.016 1.016 0 0 0 2.032 0l-1.016-4e-3z"/>
    </g>
    <g fill-opacity="0" stroke-width=".1524">
     <path d="m104.394 122.174a1.016 1.016 0 0 0 2.032 0"/>
     <path d="m104.394 122.174h2.032" fill="none" stroke="#840000" stroke-linecap="round" stroke-linejoin="round" stroke-width=".1524"/>
     <path d="m104.394 121.666h2.032" fill="none" stroke="#840000" stroke-linecap="round" stroke-linejoin="round" stroke-width=".1524"/>
     <path d="m106.426 121.666a1.016 1.016 0 0 0-2.032 0"/>
    </g>
    <g fill-opacity="1" stroke-width="0">
     <path d="m106.426 121.666a1.016 1.016 0 0 0-2.032 0l1.016 4e-3z"/>
    </g>
    <g fill-opacity="0" stroke-width=".1524">
     <path d="m106.426 121.666a1.016 1.016 0 0 0-2.032 0"/>
     <path d="m105.41 123.19v2.54"/>
    </g>
   </g>
   <g fill-opacity="0" stroke-width=".1524">
    <g fill="#a90000" stroke="#a90000">
     <g transform="rotate(-90,105.664,124.46)">
      <text x="105.664" y="125.73" font-size="1.6933px" opacity="0" text-anchor="middle" lengthAdjust="spacingAndGlyphs" textLength="1.4127001">1</text>
     </g>
     <g class="stroked-text">
      <desc>1</desc>
      <path d="m106.9864 124.097v0.7257"/>
      <path d="m106.9864 124.4599h-1.27"/>
      <path d="m105.7164 124.4599 0.1815 0.1209"/>
      <path d="m105.8979 124.5808 0.1209 0.121"/>
      <path d="m106.0188 124.7018 0.0605 0.1209"/>
     </g>
    </g>
    <g fill="#840000" stroke="#840000">
     <path d="m105.41 120.65v-2.54"/>
    </g>
    <g fill="#a90000" stroke="#a90000">
     <g transform="rotate(-90,105.664,119.38)">
      <text x="105.664" y="120.65" font-size="1.6933px" opacity="0" text-anchor="middle" lengthAdjust="spacingAndGlyphs" textLength="1.4127001">2</text>
     </g>
     <g class="stroked-text">
      <desc>2</desc>
      <path d="m105.8374 119.7427-0.0605-0.0604"/>
      <path d="m105.7769 119.6823-0.0605-0.121"/>
      <path d="m105.7164 119.5613v-0.3024"/>
      <path d="m105.7164 119.2589 0.0605-0.1209"/>
      <path d="m105.7769 119.138 0.0605-0.0605"/>
      <path d="m105.8374 119.0775 0.1209-0.0605"/>
      <path d="m105.9583 119.017h0.121"/>
      <path d="m106.0793 119.017 0.1814 0.0605"/>
      <path d="m106.2607 119.0775 0.7257 0.7257"/>
      <path d="m106.9864 119.8032v-0.7862"/>
     </g>
    </g>
    <g fill="#006464" stroke="#006464">
     <text x="109.7847" y="121.2849" font-size="1.6933px" opacity="0" text-anchor="middle" lengthAdjust="spacingAndGlyphs" textLength="3.6503">JP2</text>
     <g class="stroked-text">
      <desc>JP2</desc>
      <path d="m108.7264 119.9594v0.9072"/>
      <path d="m108.7264 120.8666-0.0605 0.1814"/>
      <path d="m108.6659 121.048-0.1209 0.121"/>
      <path d="m108.545 121.169-0.1815 0.0604"/>
      <path d="m108.3635 121.2294h-0.1209"/>
      <path d="m109.3311 121.2294v-1.27"/>
      <path d="m109.3311 119.9594h0.4838"/>
      <path d="m109.8149 119.9594 0.121 0.0605"/>
      <path d="m109.9359 120.0199 0.0605 0.0605"/>
      <path d="m109.9964 120.0804 0.0604 0.1209"/>
      <path d="m110.0568 120.2013v0.1815"/>
      <path d="m110.0568 120.3828-0.0604 0.1209"/>
      <path d="m109.9964 120.5037-0.0605 0.0605"/>
      <path d="m109.9359 120.5642-0.121 0.0605"/>
      <path d="m109.8149 120.6247h-0.4838"/>
      <path d="m110.5407 120.0804 0.0604-0.0605"/>
      <path d="m110.6011 120.0199 0.121-0.0605"/>
      <path d="m110.7221 119.9594h0.3024"/>
      <path d="m111.0245 119.9594 0.1209 0.0605"/>
      <path d="m111.1454 120.0199 0.0605 0.0605"/>
      <path d="m111.2059 120.0804 0.0605 0.1209"/>
      <path d="m111.2664 120.2013v0.121"/>
      <path d="m111.2664 120.3223-0.0605 0.1814"/>
      <path d="m111.2059 120.5037-0.7257 0.7257"/>
      <path d="m110.4802 121.2294h0.7862"/>
     </g>
     <text x="118.4327" y="123.8249" font-size="1.6933px" opacity="0" text-anchor="middle" lengthAdjust="spacingAndGlyphs" textLength="20.946199">SolderJumper_2_Open</text>
     <g class="stroked-text">
      <desc>SolderJumper_2_Open</desc>
      <path d="m108.3031 123.709 0.1814 0.0604"/>
      <path d="m108.4845 123.7694h0.3024"/>
      <path d="m108.7869 123.7694 0.1209-0.0604"/>
      <path d="m108.9078 123.709 0.0605-0.0605"/>
      <path d="m108.9683 123.6485 0.0605-0.121"/>
      <path d="m109.0288 123.5275v-0.1209"/>
      <path d="m109.0288 123.4066-0.0605-0.121"/>
      <path d="m108.9683 123.2856-0.0605-0.0605"/>
      <path d="m108.9078 123.2251-0.1209-0.0604"/>
      <path d="m108.7869 123.1647-0.2419-0.0605"/>
      <path d="m108.545 123.1042-0.121-0.0605"/>
      <path d="m108.424 123.0437-0.0605-0.0605"/>
      <path d="m108.3635 122.9832-0.0604-0.1209"/>
      <path d="m108.3031 122.8623v-0.121"/>
      <path d="m108.3031 122.7413 0.0604-0.1209"/>
      <path d="m108.3635 122.6204 0.0605-0.0605"/>
      <path d="m108.424 122.5599 0.121-0.0605"/>
      <path d="m108.545 122.4994h0.3023"/>
      <path d="m108.8473 122.4994 0.1815 0.0605"/>
      <path d="m109.7545 123.7694-0.121-0.0604"/>
      <path d="m109.6335 123.709-0.0605-0.0605"/>
      <path d="m109.573 123.6485-0.0604-0.121"/>
      <path d="m109.5126 123.5275v-0.3628"/>
      <path d="m109.5126 123.1647 0.0604-0.121"/>
      <path d="m109.573 123.0437 0.0605-0.0605"/>
      <path d="m109.6335 122.9832 0.121-0.0604"/>
      <path d="m109.7545 122.9228h0.1814"/>
      <path d="m109.9359 122.9228 0.1209 0.0604"/>
      <path d="m110.0568 122.9832 0.0605 0.0605"/>
      <path d="m110.1173 123.0437 0.0605 0.121"/>
      <path d="m110.1778 123.1647v0.3628"/>
      <path d="m110.1778 123.5275-0.0605 0.121"/>
      <path d="m110.1173 123.6485-0.0605 0.0605"/>
      <path d="m110.0568 123.709-0.1209 0.0604"/>
      <path d="m109.9359 123.7694h-0.1814"/>
      <path d="m110.9035 123.7694-0.121-0.0604"/>
      <path d="m110.7825 123.709-0.0605-0.121"/>
      <path d="m110.722 123.588v-1.0886"/>
      <path d="m111.9315 123.7694v-1.27"/>
      <path d="m111.9315 123.709-0.1209 0.0604"/>
      <path d="m111.8106 123.7694h-0.2419"/>
      <path d="m111.5687 123.7694-0.121-0.0604"/>
      <path d="m111.4477 123.709-0.0605-0.0605"/>
      <path d="m111.3872 123.6485-0.0604-0.121"/>
      <path d="m111.3268 123.5275v-0.3628"/>
      <path d="m111.3268 123.1647 0.0604-0.121"/>
      <path d="m111.3872 123.0437 0.0605-0.0605"/>
      <path d="m111.4477 122.9832 0.121-0.0604"/>
      <path d="m111.5687 122.9228h0.2419"/>
      <path d="m111.8106 122.9228 0.1209 0.0604"/>
      <path d="m113.02 123.709-0.1209 0.0604"/>
      <path d="m112.8991 123.7694h-0.2419"/>
      <path d="m112.6572 123.7694-0.121-0.0604"/>
      <path d="m112.5362 123.709-0.0604-0.121"/>
      <path d="m112.4758 123.588v-0.4838"/>
      <path d="m112.4758 123.1042 0.0604-0.121"/>
      <path d="m112.5362 122.9832 0.121-0.0604"/>
      <path d="m112.6572 122.9228h0.2419"/>
      <path d="m112.8991 122.9228 0.1209 0.0604"/>
      <path d="m113.02 122.9832 0.0605 0.121"/>
      <path d="m113.0805 123.1042v0.1209"/>
      <path d="m113.0805 123.2251-0.6047 0.121"/>
      <path d="m113.6248 123.7694v-0.8466"/>
      <path d="m113.6248 123.1647 0.0605-0.121"/>
      <path d="m113.6853 123.0437 0.0605-0.0605"/>
      <path d="m113.7458 122.9832 0.1209-0.0604"/>
      <path d="m113.8667 122.9228h0.121"/>
      <path d="m114.7739 122.4994v0.9072"/>
      <path d="m114.7739 123.4066-0.0605 0.1814"/>
      <path d="m114.7134 123.588-0.1209 0.121"/>
      <path d="m114.5925 123.709-0.1815 0.0604"/>
      <path d="m114.411 123.7694h-0.1209"/>
      <path d="m115.9229 122.9228v0.8466"/>
      <path d="m115.3786 122.9228v0.6652"/>
      <path d="m115.3786 123.588 0.0605 0.121"/>
      <path d="m115.4391 123.709 0.121 0.0604"/>
      <path d="m115.5601 123.7694h0.1814"/>
      <path d="m115.7415 123.7694 0.1209-0.0604"/>
      <path d="m115.8624 123.709 0.0605-0.0605"/>
      <path d="m116.5276 123.7694v-0.8466"/>
      <path d="m116.5276 123.0437 0.0605-0.0605"/>
      <path d="m116.5881 122.9832 0.121-0.0604"/>
      <path d="m116.7091 122.9228h0.1814"/>
      <path d="m116.8905 122.9228 0.1209 0.0604"/>
      <path d="m117.0114 122.9832 0.0605 0.121"/>
      <path d="m117.0719 123.1042v0.6652"/>
      <path d="m117.0719 123.1042 0.0605-0.121"/>
      <path d="m117.1324 122.9832 0.1209-0.0604"/>
      <path d="m117.2533 122.9228h0.1815"/>
      <path d="m117.4348 122.9228 0.1209 0.0604"/>
      <path d="m117.5557 122.9832 0.0605 0.121"/>
      <path d="m117.6162 123.1042v0.6652"/>
      <path d="m118.2209 122.9228v1.27"/>
      <path d="m118.2209 122.9832 0.121-0.0604"/>
      <path d="m118.3419 122.9228h0.2419"/>
      <path d="m118.5838 122.9228 0.1209 0.0604"/>
      <path d="m118.7047 122.9832 0.0605 0.0605"/>
      <path d="m118.7652 123.0437 0.0605 0.121"/>
      <path d="m118.8257 123.1647v0.3628"/>
      <path d="m118.8257 123.5275-0.0605 0.121"/>
      <path d="m118.7652 123.6485-0.0605 0.0605"/>
      <path d="m118.7047 123.709-0.1209 0.0604"/>
      <path d="m118.5838 123.7694h-0.2419"/>
      <path d="m118.3419 123.7694-0.121-0.0604"/>
      <path d="m119.8537 123.709-0.1209 0.0604"/>
      <path d="m119.7328 123.7694h-0.2419"/>
      <path d="m119.4909 123.7694-0.121-0.0604"/>
      <path d="m119.3699 123.709-0.0604-0.121"/>
      <path d="m119.3095 123.588v-0.4838"/>
      <path d="m119.3095 123.1042 0.0604-0.121"/>
      <path d="m119.3699 122.9832 0.121-0.0604"/>
      <path d="m119.4909 122.9228h0.2419"/>
      <path d="m119.7328 122.9228 0.1209 0.0604"/>
      <path d="m119.8537 122.9832 0.0605 0.121"/>
      <path d="m119.9142 123.1042v0.1209"/>
      <path d="m119.9142 123.2251-0.6047 0.121"/>
      <path d="m120.4585 123.7694v-0.8466"/>
      <path d="m120.4585 123.1647 0.0605-0.121"/>
      <path d="m120.519 123.0437 0.0605-0.0605"/>
      <path d="m120.5795 122.9832 0.1209-0.0604"/>
      <path d="m120.7004 122.9228h0.121"/>
      <path d="m120.9424 123.8904h0.9676"/>
      <path d="m122.1519 122.6204 0.0604-0.0605"/>
      <path d="m122.2123 122.5599 0.121-0.0605"/>
      <path d="m122.3333 122.4994h0.3024"/>
      <path d="m122.6357 122.4994 0.1209 0.0605"/>
      <path d="m122.7566 122.5599 0.0605 0.0605"/>
      <path d="m122.8171 122.6204 0.0605 0.1209"/>
      <path d="m122.8776 122.7413v0.121"/>
      <path d="m122.8776 122.8623-0.0605 0.1814"/>
      <path d="m122.8171 123.0437-0.7257 0.7257"/>
      <path d="m122.0914 123.7694h0.7862"/>
      <path d="m123.1195 123.8904h0.9676"/>
      <path d="m124.6313 122.4994h0.2419"/>
      <path d="m124.8732 122.4994 0.121 0.0605"/>
      <path d="m124.9942 122.5599 0.1209 0.121"/>
      <path d="m125.1151 122.6809 0.0605 0.2419"/>
      <path d="m125.1756 122.9228v0.4233"/>
      <path d="m125.1756 123.3461-0.0605 0.2419"/>
      <path d="m125.1151 123.588-0.1209 0.121"/>
      <path d="m124.9942 123.709-0.121 0.0604"/>
      <path d="m124.8732 123.7694h-0.2419"/>
      <path d="m124.6313 123.7694-0.1209-0.0604"/>
      <path d="m124.5104 123.709-0.121-0.121"/>
      <path d="m124.3894 123.588-0.0604-0.2419"/>
      <path d="m124.329 123.3461v-0.4233"/>
      <path d="m124.329 122.9228 0.0604-0.2419"/>
      <path d="m124.3894 122.6809 0.121-0.121"/>
      <path d="m124.5104 122.5599 0.1209-0.0605"/>
      <path d="m125.7199 122.9228v1.27"/>
      <path d="m125.7199 122.9832 0.121-0.0604"/>
      <path d="m125.8409 122.9228h0.2419"/>
      <path d="m126.0828 122.9228 0.1209 0.0604"/>
      <path d="m126.2037 122.9832 0.0605 0.0605"/>
      <path d="m126.2642 123.0437 0.0605 0.121"/>
      <path d="m126.3247 123.1647v0.3628"/>
      <path d="m126.3247 123.5275-0.0605 0.121"/>
      <path d="m126.2642 123.6485-0.0605 0.0605"/>
      <path d="m126.2037 123.709-0.1209 0.0604"/>
      <path d="m126.0828 123.7694h-0.2419"/>
      <path d="m125.8409 123.7694-0.121-0.0604"/>
      <path d="m127.3527 123.709-0.1209 0.0604"/>
      <path d="m127.2318 123.7694h-0.2419"/>
      <path d="m126.9899 123.7694-0.121-0.0604"/>
      <path d="m126.8689 123.709-0.0604-0.121"/>
      <path d="m126.8085 123.588v-0.4838"/>
      <path d="m126.8085 123.1042 0.0604-0.121"/>
      <path d="m126.8689 122.9832 0.121-0.0604"/>
      <path d="m126.9899 122.9228h0.2419"/>
      <path d="m127.2318 122.9228 0.1209 0.0604"/>
      <path d="m127.3527 122.9832 0.0605 0.121"/>
      <path d="m127.4132 123.1042v0.1209"/>
      <path d="m127.4132 123.2251-0.6047 0.121"/>
      <path d="m127.9575 122.9228v0.8466"/>
      <path d="m127.9575 123.0437 0.0605-0.0605"/>
      <path d="m128.018 122.9832 0.121-0.0604"/>
      <path d="m128.139 122.9228h0.1814"/>
      <path d="m128.3204 122.9228 0.1209 0.0604"/>
      <path d="m128.4413 122.9832 0.0605 0.121"/>
      <path d="m128.5018 123.1042v0.6652"/>
     </g>
    </g>
    <g fill="none" stroke="#840000">
     <path d="m115.57 112.268 1.27 0.762"/>
     <path d="m114.3 113.03h2.54"/>
     <path d="m116.84 113.03-1.27 0.762"/>
    </g>
    <g fill="#006464" stroke="#006464">
     <text x="120.1564" y="113.6649" font-size="1.6933px" opacity="0" text-anchor="middle" lengthAdjust="spacingAndGlyphs" textLength="4.0737">+5V</text>
     <g class="stroked-text">
      <desc>+5V</desc>
      <path d="m118.5235 113.1256h0.9677"/>
      <path d="m119.0073 113.6094v-0.9676"/>
      <path d="m120.7007 112.3394h-0.6048"/>
      <path d="m120.0959 112.3394-0.0604 0.6048"/>
      <path d="m120.0355 112.9442 0.0604-0.0605"/>
      <path d="m120.0959 112.8837 0.121-0.0605"/>
      <path d="m120.2169 112.8232h0.3024"/>
      <path d="m120.5193 112.8232 0.1209 0.0605"/>
      <path d="m120.6402 112.8837 0.0605 0.0605"/>
      <path d="m120.7007 112.9442 0.0605 0.1209"/>
      <path d="m120.7612 113.0651v0.3024"/>
      <path d="m120.7612 113.3675-0.0605 0.121"/>
      <path d="m120.7007 113.4885-0.0605 0.0605"/>
      <path d="m120.6402 113.549-0.1209 0.0604"/>
      <path d="m120.5193 113.6094h-0.3024"/>
      <path d="m120.2169 113.6094-0.121-0.0604"/>
      <path d="m120.0959 113.549-0.0604-0.0605"/>
      <path d="m121.124 112.3394 0.4233 1.27"/>
      <path d="m121.5473 113.6094 0.4234-1.27"/>
     </g>
    </g>
   </g>
  </g>
  <g transform="translate(-54.533801,-104.6433)" fill="#840000" stroke="#840000">
   <text x="115.7288" y="116.2958" font-size="1.6933px" opacity="0" lengthAdjust="spacingAndGlyphs" textLength="3.7713001">SDA</text>
   <g class="stroked-text">
    <desc>SDA</desc>
    <path d="m116.0709 116.1799 0.1814 0.0604"/>
    <path d="m116.2523 116.2403h0.3024"/>
    <path d="m116.5547 116.2403 0.1209-0.0604"/>
    <path d="m116.6756 116.1799 0.0605-0.0605"/>
    <path d="m116.7361 116.1194 0.0605-0.121"/>
    <path d="m116.7966 115.9984v-0.1209"/>
    <path d="m116.7966 115.8775-0.0605-0.121"/>
    <path d="m116.7361 115.7565-0.0605-0.0605"/>
    <path d="m116.6756 115.696-0.1209-0.0604"/>
    <path d="m116.5547 115.6356-0.2419-0.0605"/>
    <path d="m116.3128 115.5751-0.121-0.0605"/>
    <path d="m116.1918 115.5146-0.0605-0.0605"/>
    <path d="m116.1313 115.4541-0.0604-0.1209"/>
    <path d="m116.0709 115.3332v-0.121"/>
    <path d="m116.0709 115.2122 0.0604-0.1209"/>
    <path d="m116.1313 115.0913 0.0605-0.0605"/>
    <path d="m116.1918 115.0308 0.121-0.0605"/>
    <path d="m116.3128 114.9703h0.3023"/>
    <path d="m116.6151 114.9703 0.1815 0.0605"/>
    <path d="m117.3408 116.2403v-1.27"/>
    <path d="m117.3408 114.9703h0.3024"/>
    <path d="m117.6432 114.9703 0.1814 0.0605"/>
    <path d="m117.8246 115.0308 0.121 0.121"/>
    <path d="m117.9456 115.1518 0.0605 0.1209"/>
    <path d="m118.0061 115.2727 0.0604 0.2419"/>
    <path d="m118.0665 115.5146v0.1814"/>
    <path d="m118.0665 115.696-0.0604 0.2419"/>
    <path d="m118.0061 115.9379-0.0605 0.121"/>
    <path d="m117.9456 116.0589-0.121 0.121"/>
    <path d="m117.8246 116.1799-0.1814 0.0604"/>
    <path d="m117.6432 116.2403h-0.3024"/>
    <path d="m118.5504 115.8775h0.6047"/>
    <path d="m118.4294 116.2403 0.4233-1.27"/>
    <path d="m118.8527 114.9703 0.4234 1.27"/>
   </g>
   <path d="m114.3 115.57 1.1113 1.2704h4.9022v-2.5408h-4.9022z" fill="none" stroke="#840000" stroke-linecap="round" stroke-linejoin="round" stroke-width=".1524"/>
   <text x="115.7288" y="118.8358" font-size="1.6933px" opacity="0" lengthAdjust="spacingAndGlyphs" textLength="3.7107999">SCL</text>
   <g class="stroked-text">
    <desc>SCL</desc>
    <path d="m116.0709 118.7199 0.1814 0.0604"/>
    <path d="m116.2523 118.7803h0.3024"/>
    <path d="m116.5547 118.7803 0.1209-0.0604"/>
    <path d="m116.6756 118.7199 0.0605-0.0605"/>
    <path d="m116.7361 118.6594 0.0605-0.121"/>
    <path d="m116.7966 118.5384v-0.1209"/>
    <path d="m116.7966 118.4175-0.0605-0.121"/>
    <path d="m116.7361 118.2965-0.0605-0.0605"/>
    <path d="m116.6756 118.236-0.1209-0.0604"/>
    <path d="m116.5547 118.1756-0.2419-0.0605"/>
    <path d="m116.3128 118.1151-0.121-0.0605"/>
    <path d="m116.1918 118.0546-0.0605-0.0605"/>
    <path d="m116.1313 117.9941-0.0604-0.1209"/>
    <path d="m116.0709 117.8732v-0.121"/>
    <path d="m116.0709 117.7522 0.0604-0.1209"/>
    <path d="m116.1313 117.6313 0.0605-0.0605"/>
    <path d="m116.1918 117.5708 0.121-0.0605"/>
    <path d="m116.3128 117.5103h0.3023"/>
    <path d="m116.6151 117.5103 0.1815 0.0605"/>
    <path d="m118.0665 118.6594-0.0604 0.0605"/>
    <path d="m118.0061 118.7199-0.1815 0.0604"/>
    <path d="m117.8246 118.7803h-0.1209"/>
    <path d="m117.7037 118.7803-0.1814-0.0604"/>
    <path d="m117.5223 118.7199-0.121-0.121"/>
    <path d="m117.4013 118.5989-0.0605-0.121"/>
    <path d="m117.3408 118.4779-0.0604-0.2419"/>
    <path d="m117.2804 118.236v-0.1814"/>
    <path d="m117.2804 118.0546 0.0604-0.2419"/>
    <path d="m117.3408 117.8127 0.0605-0.1209"/>
    <path d="m117.4013 117.6918 0.121-0.121"/>
    <path d="m117.5223 117.5708 0.1814-0.0605"/>
    <path d="m117.7037 117.5103h0.1209"/>
    <path d="m117.8246 117.5103 0.1815 0.0605"/>
    <path d="m118.0061 117.5708 0.0604 0.0605"/>
    <path d="m119.2156 118.7803h-0.6048"/>
    <path d="m118.6108 118.7803v-1.27"/>
   </g>
   <path d="m114.3 118.11 1.1113 1.2704h4.8417v-2.5408h-4.8417z" fill="none" stroke="#840000" stroke-linecap="round" stroke-linejoin="round" stroke-width=".1524"/>
  </g>
  <g transform="translate(-54.533801,-104.6433)" fill="#009600" stroke="#009600">
   <path d="m78.74 115.57h15.24"/>
   <path d="m83.82 113.03h-15.24"/>
   <path d="m76.2 110.49h-7.62"/>
   <path d="m78.74 115.57h-10.16"/>
   <path d="m81.28 118.11h-12.7"/>
   <path d="m68.58 132.08h10.16"/>
   <path d="m68.58 129.54h7.62"/>
   <path d="m68.58 137.16h15.24"/>
   <path d="m76.2 110.49h38.1"/>
   <path d="m81.28 118.11h24.13"/>
   <path d="m83.82 113.03h30.48"/>
   <path d="m68.58 134.62h12.7"/>
   <path d="m76.2 129.54v-19.05"/>
   <path d="m93.98 115.57h20.32"/>
   <path d="m78.74 132.08v-16.51"/>
   <path d="m81.28 134.62v-16.51"/>
   <path d="m83.82 137.16v-24.13"/>
   <path d="m105.41 118.11h8.89"/>
   <path d="m105.41 125.73v3.81"/>
   <path d="m93.98 115.57v6.35"/>
   <path d="m93.98 137.16h11.43"/>
   <path d="m105.41 137.16h8.89"/>
  </g>
  <g transform="translate(-54.533801,-104.6433)" fill="#006464" stroke="#006464">
   <text x="97.870903" y="132.7149" font-size="1.6933px" opacity="0" text-anchor="middle" lengthAdjust="spacingAndGlyphs" textLength="2.6826999">R1</text>
   <g class="stroked-text">
    <desc>R1</desc>
    <path d="m97.6592 132.6594-0.4233-0.6047"/>
    <path d="m96.9335 132.6594v-1.27"/>
    <path d="m96.9335 131.3894h0.4838"/>
    <path d="m97.4173 131.3894 0.121 0.0605"/>
    <path d="m97.5383 131.4499 0.0605 0.0605"/>
    <path d="m97.5988 131.5104 0.0604 0.1209"/>
    <path d="m97.6592 131.6313v0.1815"/>
    <path d="m97.6592 131.8128-0.0604 0.1209"/>
    <path d="m97.5988 131.9337-0.0605 0.0605"/>
    <path d="m97.5383 131.9942-0.121 0.0605"/>
    <path d="m97.4173 132.0547h-0.4838"/>
    <path d="m98.8688 132.6594h-0.7257"/>
    <path d="m98.5059 132.6594v-1.27"/>
    <path d="m98.5059 131.3894-0.1209 0.1815"/>
    <path d="m98.385 131.5709-0.121 0.1209"/>
    <path d="m98.264 131.6918-0.1209 0.0605"/>
   </g>
   <text x="98.657097" y="135.2549" font-size="1.6933px" opacity="0" text-anchor="middle" lengthAdjust="spacingAndGlyphs" textLength="4.2550998">4.7k</text>
   <g class="stroked-text">
    <desc>4.7k</desc>
    <path d="m97.4778 134.3528v0.8466"/>
    <path d="m97.1754 133.869-0.3023 0.9071"/>
    <path d="m96.8731 134.7761h0.7861"/>
    <path d="m98.143 135.0785 0.0605 0.0605"/>
    <path d="m98.2035 135.139-0.0605 0.0604"/>
    <path d="m98.143 135.1994-0.0604-0.0604"/>
    <path d="m98.0826 135.139 0.0604-0.0605"/>
    <path d="m98.143 135.0785v0.1209"/>
    <path d="m98.6269 133.9294h0.8466"/>
    <path d="m99.4735 133.9294-0.5442 1.27"/>
    <path d="m99.9573 135.1994v-1.27"/>
    <path d="m100.0783 134.7156 0.3628 0.4838"/>
    <path d="m100.4411 134.3528-0.4838 0.4838"/>
   </g>
  </g>
  <g transform="translate(-54.533801,-104.6433)" fill="#840000" stroke="#840000">
   <path d="m93.98 130.81v-1.27"/>
   <path d="m93.98 135.89v1.27"/>
  </g>
  <g transform="translate(-54.533801,-104.6433)" fill="#006464" stroke="#006464">
   <text x="109.3009" y="132.7149" font-size="1.6933px" opacity="0" text-anchor="middle" lengthAdjust="spacingAndGlyphs" textLength="2.6826999">R2</text>
   <g class="stroked-text">
    <desc>R2</desc>
    <path d="m109.0892 132.6594-0.4233-0.6047"/>
    <path d="m108.3635 132.6594v-1.27"/>
    <path d="m108.3635 131.3894h0.4838"/>
    <path d="m108.8473 131.3894 0.121 0.0605"/>
    <path d="m108.9683 131.4499 0.0605 0.0605"/>
    <path d="m109.0288 131.5104 0.0604 0.1209"/>
    <path d="m109.0892 131.6313v0.1815"/>
    <path d="m109.0892 131.8128-0.0604 0.1209"/>
    <path d="m109.0288 131.9337-0.0605 0.0605"/>
    <path d="m108.9683 131.9942-0.121 0.0605"/>
    <path d="m108.8473 132.0547h-0.4838"/>
    <path d="m109.5731 131.5104 0.0604-0.0605"/>
    <path d="m109.6335 131.4499 0.121-0.0605"/>
    <path d="m109.7545 131.3894h0.3024"/>
    <path d="m110.0569 131.3894 0.1209 0.0605"/>
    <path d="m110.1778 131.4499 0.0605 0.0605"/>
    <path d="m110.2383 131.5104 0.0605 0.1209"/>
    <path d="m110.2988 131.6313v0.121"/>
    <path d="m110.2988 131.7523-0.0605 0.1814"/>
    <path d="m110.2383 131.9337-0.7257 0.7257"/>
    <path d="m109.5126 132.6594h0.7862"/>
   </g>
   <text x="110.0871" y="135.2549" font-size="1.6933px" opacity="0" text-anchor="middle" lengthAdjust="spacingAndGlyphs" textLength="4.2550998">4.7k</text>
   <g class="stroked-text">
    <desc>4.7k</desc>
    <path d="m108.9078 134.3528v0.8466"/>
    <path d="m108.6054 133.869-0.3023 0.9071"/>
    <path d="m108.3031 134.7761h0.7861"/>
    <path d="m109.573 135.0785 0.0605 0.0605"/>
    <path d="m109.6335 135.139-0.0605 0.0604"/>
    <path d="m109.573 135.1994-0.0604-0.0604"/>
    <path d="m109.5126 135.139 0.0604-0.0605"/>
    <path d="m109.573 135.0785v0.1209"/>
    <path d="m110.0569 133.9294h0.8466"/>
    <path d="m110.9035 133.9294-0.5442 1.27"/>
    <path d="m111.3873 135.1994v-1.27"/>
    <path d="m111.5083 134.7156 0.3628 0.4838"/>
    <path d="m111.8711 134.3528-0.4838 0.4838"/>
   </g>
  </g>
  <g transform="translate(-54.533801,-104.6433)" fill="#840000" stroke="#840000">
   <path d="m105.41 130.81v-1.27"/>
   <path d="m105.41 135.89v1.27"/>
  </g>
  <g transform="translate(-54.533801,-104.6433)" fill="#006464" stroke="#006464">
   <text x="109.7847" y="121.2849" font-size="1.6933px" opacity="0" text-anchor="middle" lengthAdjust="spacingAndGlyphs" textLength="3.6503">JP2</text>
   <g class="stroked-text">
    <desc>JP2</desc>
    <path d="m108.7264 119.9594v0.9072"/>
    <path d="m108.7264 120.8666-0.0605 0.1814"/>
    <path d="m108.6659 121.048-0.1209 0.121"/>
    <path d="m108.545 121.169-0.1815 0.0604"/>
    <path d="m108.3635 121.2294h-0.1209"/>
    <path d="m109.3311 121.2294v-1.27"/>
    <path d="m109.3311 119.9594h0.4838"/>
    <path d="m109.8149 119.9594 0.121 0.0605"/>
    <path d="m109.9359 120.0199 0.0605 0.0605"/>
    <path d="m109.9964 120.0804 0.0604 0.1209"/>
    <path d="m110.0568 120.2013v0.1815"/>
    <path d="m110.0568 120.3828-0.0604 0.1209"/>
    <path d="m109.9964 120.5037-0.0605 0.0605"/>
    <path d="m109.9359 120.5642-0.121 0.0605"/>
    <path d="m109.8149 120.6247h-0.4838"/>
    <path d="m110.5407 120.0804 0.0604-0.0605"/>
    <path d="m110.6011 120.0199 0.121-0.0605"/>
    <path d="m110.7221 119.9594h0.3024"/>
    <path d="m111.0245 119.9594 0.1209 0.0605"/>
    <path d="m111.1454 120.0199 0.0605 0.0605"/>
    <path d="m111.2059 120.0804 0.0605 0.1209"/>
    <path d="m111.2664 120.2013v0.121"/>
    <path d="m111.2664 120.3223-0.0605 0.1814"/>
    <path d="m111.2059 120.5037-0.7257 0.7257"/>
    <path d="m110.4802 121.2294h0.7862"/>
   </g>
   <text x="118.4327" y="123.8249" font-size="1.6933px" opacity="0" text-anchor="middle" lengthAdjust="spacingAndGlyphs" textLength="20.946199">SolderJumper_2_Open</text>
   <g class="stroked-text">
    <desc>SolderJumper_2_Open</desc>
    <path d="m108.3031 123.709 0.1814 0.0604"/>
    <path d="m108.4845 123.7694h0.3024"/>
    <path d="m108.7869 123.7694 0.1209-0.0604"/>
    <path d="m108.9078 123.709 0.0605-0.0605"/>
    <path d="m108.9683 123.6485 0.0605-0.121"/>
    <path d="m109.0288 123.5275v-0.1209"/>
    <path d="m109.0288 123.4066-0.0605-0.121"/>
    <path d="m108.9683 123.2856-0.0605-0.0605"/>
    <path d="m108.9078 123.2251-0.1209-0.0604"/>
    <path d="m108.7869 123.1647-0.2419-0.0605"/>
    <path d="m108.545 123.1042-0.121-0.0605"/>
    <path d="m108.424 123.0437-0.0605-0.0605"/>
    <path d="m108.3635 122.9832-0.0604-0.1209"/>
    <path d="m108.3031 122.8623v-0.121"/>
    <path d="m108.3031 122.7413 0.0604-0.1209"/>
    <path d="m108.3635 122.6204 0.0605-0.0605"/>
    <path d="m108.424 122.5599 0.121-0.0605"/>
    <path d="m108.545 122.4994h0.3023"/>
    <path d="m108.8473 122.4994 0.1815 0.0605"/>
    <path d="m109.7545 123.7694-0.121-0.0604"/>
    <path d="m109.6335 123.709-0.0605-0.0605"/>
    <path d="m109.573 123.6485-0.0604-0.121"/>
    <path d="m109.5126 123.5275v-0.3628"/>
    <path d="m109.5126 123.1647 0.0604-0.121"/>
    <path d="m109.573 123.0437 0.0605-0.0605"/>
    <path d="m109.6335 122.9832 0.121-0.0604"/>
    <path d="m109.7545 122.9228h0.1814"/>
    <path d="m109.9359 122.9228 0.1209 0.0604"/>
    <path d="m110.0568 122.9832 0.0605 0.0605"/>
    <path d="m110.1173 123.0437 0.0605 0.121"/>
    <path d="m110.1778 123.1647v0.3628"/>
    <path d="m110.1778 123.5275-0.0605 0.121"/>
    <path d="m110.1173 123.6485-0.0605 0.0605"/>
    <path d="m110.0568 123.709-0.1209 0.0604"/>
    <path d="m109.9359 123.7694h-0.1814"/>
    <path d="m110.9035 123.7694-0.121-0.0604"/>
    <path d="m110.7825 123.709-0.0605-0.121"/>
    <path d="m110.722 123.588v-1.0886"/>
    <path d="m111.9315 123.7694v-1.27"/>
    <path d="m111.9315 123.709-0.1209 0.0604"/>
    <path d="m111.8106 123.7694h-0.2419"/>
    <path d="m111.5687 123.7694-0.121-0.0604"/>
    <path d="m111.4477 123.709-0.0605-0.0605"/>
    <path d="m111.3872 123.6485-0.0604-0.121"/>
    <path d="m111.3268 123.5275v-0.3628"/>
    <path d="m111.3268 123.1647 0.0604-0.121"/>
    <path d="m111.3872 123.0437 0.0605-0.0605"/>
    <path d="m111.4477 122.9832 0.121-0.0604"/>
    <path d="m111.5687 122.9228h0.2419"/>
    <path d="m111.8106 122.9228 0.1209 0.0604"/>
    <path d="m113.02 123.709-0.1209 0.0604"/>
    <path d="m112.8991 123.7694h-0.2419"/>
    <path d="m112.6572 123.7694-0.121-0.0604"/>
    <path d="m112.5362 123.709-0.0604-0.121"/>
    <path d="m112.4758 123.588v-0.4838"/>
    <path d="m112.4758 123.1042 0.0604-0.121"/>
    <path d="m112.5362 122.9832 0.121-0.0604"/>
    <path d="m112.6572 122.9228h0.2419"/>
    <path d="m112.8991 122.9228 0.1209 0.0604"/>
    <path d="m113.02 122.9832 0.0605 0.121"/>
    <path d="m113.0805 123.1042v0.1209"/>
    <path d="m113.0805 123.2251-0.6047 0.121"/>
    <path d="m113.6248 123.7694v-0.8466"/>
    <path d="m113.6248 123.1647 0.0605-0.121"/>
    <path d="m113.6853 123.0437 0.0605-0.0605"/>
    <path d="m113.7458 122.9832 0.1209-0.0604"/>
    <path d="m113.8667 122.9228h0.121"/>
    <path d="m114.7739 122.4994v0.9072"/>
    <path d="m114.7739 123.4066-0.0605 0.1814"/>
    <path d="m114.7134 123.588-0.1209 0.121"/>
    <path d="m114.5925 123.709-0.1815 0.0604"/>
    <path d="m114.411 123.7694h-0.1209"/>
    <path d="m115.9229 122.9228v0.8466"/>
    <path d="m115.3786 122.9228v0.6652"/>
    <path d="m115.3786 123.588 0.0605 0.121"/>
    <path d="m115.4391 123.709 0.121 0.0604"/>
    <path d="m115.5601 123.7694h0.1814"/>
    <path d="m115.7415 123.7694 0.1209-0.0604"/>
    <path d="m115.8624 123.709 0.0605-0.0605"/>
    <path d="m116.5276 123.7694v-0.8466"/>
    <path d="m116.5276 123.0437 0.0605-0.0605"/>
    <path d="m116.5881 122.9832 0.121-0.0604"/>
    <path d="m116.7091 122.9228h0.1814"/>
    <path d="m116.8905 122.9228 0.1209 0.0604"/>
    <path d="m117.0114 122.9832 0.0605 0.121"/>
    <path d="m117.0719 123.1042v0.6652"/>
    <path d="m117.0719 123.1042 0.0605-0.121"/>
    <path d="m117.1324 122.9832 0.1209-0.0604"/>
    <path d="m117.2533 122.9228h0.1815"/>
    <path d="m117.4348 122.9228 0.1209 0.0604"/>
    <path d="m117.5557 122.9832 0.0605 0.121"/>
    <path d="m117.6162 123.1042v0.6652"/>
    <path d="m118.2209 122.9228v1.27"/>
    <path d="m118.2209 122.9832 0.121-0.0604"/>
    <path d="m118.3419 122.9228h0.2419"/>
    <path d="m118.5838 122.9228 0.1209 0.0604"/>
    <path d="m118.7047 122.9832 0.0605 0.0605"/>
    <path d="m118.7652 123.0437 0.0605 0.121"/>
    <path d="m118.8257 123.1647v0.3628"/>
    <path d="m118.8257 123.5275-0.0605 0.121"/>
    <path d="m118.7652 123.6485-0.0605 0.0605"/>
    <path d="m118.7047 123.709-0.1209 0.0604"/>
    <path d="m118.5838 123.7694h-0.2419"/>
    <path d="m118.3419 123.7694-0.121-0.0604"/>
    <path d="m119.8537 123.709-0.1209 0.0604"/>
    <path d="m119.7328 123.7694h-0.2419"/>
    <path d="m119.4909 123.7694-0.121-0.0604"/>
    <path d="m119.3699 123.709-0.0604-0.121"/>
    <path d="m119.3095 123.588v-0.4838"/>
    <path d="m119.3095 123.1042 0.0604-0.121"/>
    <path d="m119.3699 122.9832 0.121-0.0604"/>
    <path d="m119.4909 122.9228h0.2419"/>
    <path d="m119.7328 122.9228 0.1209 0.0604"/>
    <path d="m119.8537 122.9832 0.0605 0.121"/>
    <path d="m119.9142 123.1042v0.1209"/>
    <path d="m119.9142 123.2251-0.6047 0.121"/>
    <path d="m120.4585 123.7694v-0.8466"/>
    <path d="m120.4585 123.1647 0.0605-0.121"/>
    <path d="m120.519 123.0437 0.0605-0.0605"/>
    <path d="m120.5795 122.9832 0.1209-0.0604"/>
    <path d="m120.7004 122.9228h0.121"/>
    <path d="m120.9424 123.8904h0.9676"/>
    <path d="m122.1519 122.6204 0.0604-0.0605"/>
    <path d="m122.2123 122.5599 0.121-0.0605"/>
    <path d="m122.3333 122.4994h0.3024"/>
    <path d="m122.6357 122.4994 0.1209 0.0605"/>
    <path d="m122.7566 122.5599 0.0605 0.0605"/>
    <path d="m122.8171 122.6204 0.0605 0.1209"/>
    <path d="m122.8776 122.7413v0.121"/>
    <path d="m122.8776 122.8623-0.0605 0.1814"/>
    <path d="m122.8171 123.0437-0.7257 0.7257"/>
    <path d="m122.0914 123.7694h0.7862"/>
    <path d="m123.1195 123.8904h0.9676"/>
    <path d="m124.6313 122.4994h0.2419"/>
    <path d="m124.8732 122.4994 0.121 0.0605"/>
    <path d="m124.9942 122.5599 0.1209 0.121"/>
    <path d="m125.1151 122.6809 0.0605 0.2419"/>
    <path d="m125.1756 122.9228v0.4233"/>
    <path d="m125.1756 123.3461-0.0605 0.2419"/>
    <path d="m125.1151 123.588-0.1209 0.121"/>
    <path d="m124.9942 123.709-0.121 0.0604"/>
    <path d="m124.8732 123.7694h-0.2419"/>
    <path d="m124.6313 123.7694-0.1209-0.0604"/>
    <path d="m124.5104 123.709-0.121-0.121"/>
    <path d="m124.3894 123.588-0.0604-0.2419"/>
    <path d="m124.329 123.3461v-0.4233"/>
    <path d="m124.329 122.9228 0.0604-0.2419"/>
    <path d="m124.3894 122.6809 0.121-0.121"/>
    <path d="m124.5104 122.5599 0.1209-0.0605"/>
    <path d="m125.7199 122.9228v1.27"/>
    <path d="m125.7199 122.9832 0.121-0.0604"/>
    <path d="m125.8409 122.9228h0.2419"/>
    <path d="m126.0828 122.9228 0.1209 0.0604"/>
    <path d="m126.2037 122.9832 0.0605 0.0605"/>
    <path d="m126.2642 123.0437 0.0605 0.121"/>
    <path d="m126.3247 123.1647v0.3628"/>
    <path d="m126.3247 123.5275-0.0605 0.121"/>
    <path d="m126.2642 123.6485-0.0605 0.0605"/>
    <path d="m126.2037 123.709-0.1209 0.0604"/>
    <path d="m126.0828 123.7694h-0.2419"/>
    <path d="m125.8409 123.7694-0.121-0.0604"/>
    <path d="m127.3527 123.709-0.1209 0.0604"/>
    <path d="m127.2318 123.7694h-0.2419"/>
    <path d="m126.9899 123.7694-0.121-0.0604"/>
    <path d="m126.8689 123.709-0.0604-0.121"/>
    <path d="m126.8085 123.588v-0.4838"/>
    <path d="m126.8085 123.1042 0.0604-0.121"/>
    <path d="m126.8689 122.9832 0.121-0.0604"/>
    <path d="m126.9899 122.9228h0.2419"/>
    <path d="m127.2318 122.9228 0.1209 0.0604"/>
    <path d="m127.3527 122.9832 0.0605 0.121"/>
    <path d="m127.4132 123.1042v0.1209"/>
    <path d="m127.4132 123.2251-0.6047 0.121"/>
    <path d="m127.9575 122.9228v0.8466"/>
    <path d="m127.9575 123.0437 0.0605-0.0605"/>
    <path d="m128.018 122.9832 0.121-0.0604"/>
    <path d="m128.139 122.9228h0.1814"/>
    <path d="m128.3204 122.9228 0.1209 0.0604"/>
    <path d="m128.4413 122.9832 0.0605 0.121"/>
    <path d="m128.5018 123.1042v0.6652"/>
   </g>
  </g>
  <g transform="translate(-54.533801,-104.6433)" fill="#840000" stroke="#840000">
   <path d="m105.41 123.19v2.54"/>
  </g>
  <g transform="translate(-54.533801,-104.6433)" fill="#a90000" stroke="#a90000">
   <g transform="rotate(-90,105.664,124.46)">
    <text x="105.664" y="125.73" font-size="1.6933px" opacity="0" text-anchor="middle" lengthAdjust="spacingAndGlyphs" textLength="1.4127001">1</text>
   </g>
   <g class="stroked-text">
    <desc>1</desc>
    <path d="m106.9864 124.097v0.7257"/>
    <path d="m106.9864 124.4599h-1.27"/>
    <path d="m105.7164 124.4599 0.1815 0.1209"/>
    <path d="m105.8979 124.5808 0.1209 0.121"/>
    <path d="m106.0188 124.7018 0.0605 0.1209"/>
   </g>
  </g>
  <g transform="translate(-54.533801,-104.6433)" fill="#840000" stroke="#840000">
   <path d="m105.41 120.65v-2.54"/>
  </g>
  <g transform="translate(-54.533801,-104.6433)" fill="#a90000" stroke="#a90000">
   <g transform="rotate(-90,105.664,119.38)">
    <text x="105.664" y="120.65" font-size="1.6933px" opacity="0" text-anchor="middle" lengthAdjust="spacingAndGlyphs" textLength="1.4127001">2</text>
   </g>
   <g class="stroked-text">
    <desc>2</desc>
    <path d="m105.8374 119.7427-0.0605-0.0604"/>
    <path d="m105.7769 119.6823-0.0605-0.121"/>
    <path d="m105.7164 119.5613v-0.3024"/>
    <path d="m105.7164 119.2589 0.0605-0.1209"/>
    <path d="m105.7769 119.138 0.0605-0.0605"/>
    <path d="m105.8374 119.0775 0.1209-0.0605"/>
    <path d="m105.9583 119.017h0.121"/>
    <path d="m106.0793 119.017 0.1814 0.0605"/>
    <path d="m106.2607 119.0775 0.7257 0.7257"/>
    <path d="m106.9864 119.8032v-0.7862"/>
   </g>
  </g>
  <g transform="translate(-54.533801,-104.6433)" fill="#006464" stroke="#006464">
   <text x="98.354698" y="125.0949" font-size="1.6933px" opacity="0" text-anchor="middle" lengthAdjust="spacingAndGlyphs" textLength="3.6503">JP1</text>
   <g class="stroked-text">
    <desc>JP1</desc>
    <path d="m97.2964 123.7694v0.9072"/>
    <path d="m97.2964 124.6766-0.0605 0.1814"/>
    <path d="m97.2359 124.858-0.1209 0.121"/>
    <path d="m97.115 124.979-0.1815 0.0604"/>
    <path d="m96.9335 125.0394h-0.1209"/>
    <path d="m97.9011 125.0394v-1.27"/>
    <path d="m97.9011 123.7694h0.4838"/>
    <path d="m98.3849 123.7694 0.121 0.0605"/>
    <path d="m98.5059 123.8299 0.0605 0.0605"/>
    <path d="m98.5664 123.8904 0.0604 0.1209"/>
    <path d="m98.6268 124.0113v0.1815"/>
    <path d="m98.6268 124.1928-0.0604 0.1209"/>
    <path d="m98.5664 124.3137-0.0605 0.0605"/>
    <path d="m98.5059 124.3742-0.121 0.0605"/>
    <path d="m98.3849 124.4347h-0.4838"/>
    <path d="m99.8364 125.0394h-0.7257"/>
    <path d="m99.4735 125.0394v-1.27"/>
    <path d="m99.4735 123.7694-0.1209 0.1815"/>
    <path d="m99.3526 123.9509-0.121 0.1209"/>
    <path d="m99.2316 124.0718-0.1209 0.0605"/>
   </g>
   <text x="107.0027" y="127.6349" font-size="1.6933px" opacity="0" text-anchor="middle" lengthAdjust="spacingAndGlyphs" textLength="20.946199">SolderJumper_2_Open</text>
   <g class="stroked-text">
    <desc>SolderJumper_2_Open</desc>
    <path d="m96.8731 127.519 0.1814 0.0604"/>
    <path d="m97.0545 127.5794h0.3024"/>
    <path d="m97.3569 127.5794 0.1209-0.0604"/>
    <path d="m97.4778 127.519 0.0605-0.0605"/>
    <path d="m97.5383 127.4585 0.0605-0.121"/>
    <path d="m97.5988 127.3375v-0.1209"/>
    <path d="m97.5988 127.2166-0.0605-0.121"/>
    <path d="m97.5383 127.0956-0.0605-0.0605"/>
    <path d="m97.4778 127.0351-0.1209-0.0604"/>
    <path d="m97.3569 126.9747-0.2419-0.0605"/>
    <path d="m97.115 126.9142-0.121-0.0605"/>
    <path d="m96.994 126.8537-0.0605-0.0605"/>
    <path d="m96.9335 126.7932-0.0604-0.1209"/>
    <path d="m96.8731 126.6723v-0.121"/>
    <path d="m96.8731 126.5513 0.0604-0.1209"/>
    <path d="m96.9335 126.4304 0.0605-0.0605"/>
    <path d="m96.994 126.3699 0.121-0.0605"/>
    <path d="m97.115 126.3094h0.3023"/>
    <path d="m97.4173 126.3094 0.1815 0.0605"/>
    <path d="m98.3245 127.5794-0.121-0.0604"/>
    <path d="m98.2035 127.519-0.0605-0.0605"/>
    <path d="m98.143 127.4585-0.0604-0.121"/>
    <path d="m98.0826 127.3375v-0.3628"/>
    <path d="m98.0826 126.9747 0.0604-0.121"/>
    <path d="m98.143 126.8537 0.0605-0.0605"/>
    <path d="m98.2035 126.7932 0.121-0.0604"/>
    <path d="m98.3245 126.7328h0.1814"/>
    <path d="m98.5059 126.7328 0.1209 0.0604"/>
    <path d="m98.6268 126.7932 0.0605 0.0605"/>
    <path d="m98.6873 126.8537 0.0605 0.121"/>
    <path d="m98.7478 126.9747v0.3628"/>
    <path d="m98.7478 127.3375-0.0605 0.121"/>
    <path d="m98.6873 127.4585-0.0605 0.0605"/>
    <path d="m98.6268 127.519-0.1209 0.0604"/>
    <path d="m98.5059 127.5794h-0.1814"/>
    <path d="m99.4735 127.5794-0.121-0.0604"/>
    <path d="m99.3525 127.519-0.0605-0.121"/>
    <path d="m99.292 127.398v-1.0886"/>
    <path d="m100.5015 127.5794v-1.27"/>
    <path d="m100.5015 127.519-0.1209 0.0604"/>
    <path d="m100.3806 127.5794h-0.2419"/>
    <path d="m100.1387 127.5794-0.121-0.0604"/>
    <path d="m100.0177 127.519-0.0605-0.0605"/>
    <path d="m99.9572 127.4585-0.0604-0.121"/>
    <path d="m99.8968 127.3375v-0.3628"/>
    <path d="m99.8968 126.9747 0.0604-0.121"/>
    <path d="m99.9572 126.8537 0.0605-0.0605"/>
    <path d="m100.0177 126.7932 0.121-0.0604"/>
    <path d="m100.1387 126.7328h0.2419"/>
    <path d="m100.3806 126.7328 0.1209 0.0604"/>
    <path d="m101.59 127.519-0.1209 0.0604"/>
    <path d="m101.4691 127.5794h-0.2419"/>
    <path d="m101.2272 127.5794-0.121-0.0604"/>
    <path d="m101.1062 127.519-0.0604-0.121"/>
    <path d="m101.0458 127.398v-0.4838"/>
    <path d="m101.0458 126.9142 0.0604-0.121"/>
    <path d="m101.1062 126.7932 0.121-0.0604"/>
    <path d="m101.2272 126.7328h0.2419"/>
    <path d="m101.4691 126.7328 0.1209 0.0604"/>
    <path d="m101.59 126.7932 0.0605 0.121"/>
    <path d="m101.6505 126.9142v0.1209"/>
    <path d="m101.6505 127.0351-0.6047 0.121"/>
    <path d="m102.1948 127.5794v-0.8466"/>
    <path d="m102.1948 126.9747 0.0605-0.121"/>
    <path d="m102.2553 126.8537 0.0605-0.0605"/>
    <path d="m102.3158 126.7932 0.1209-0.0604"/>
    <path d="m102.4367 126.7328h0.121"/>
    <path d="m103.3439 126.3094v0.9072"/>
    <path d="m103.3439 127.2166-0.0605 0.1814"/>
    <path d="m103.2834 127.398-0.1209 0.121"/>
    <path d="m103.1625 127.519-0.1815 0.0604"/>
    <path d="m102.981 127.5794h-0.1209"/>
    <path d="m104.4929 126.7328v0.8466"/>
    <path d="m103.9486 126.7328v0.6652"/>
    <path d="m103.9486 127.398 0.0605 0.121"/>
    <path d="m104.0091 127.519 0.121 0.0604"/>
    <path d="m104.1301 127.5794h0.1814"/>
    <path d="m104.3115 127.5794 0.1209-0.0604"/>
    <path d="m104.4324 127.519 0.0605-0.0605"/>
    <path d="m105.0976 127.5794v-0.8466"/>
    <path d="m105.0976 126.8537 0.0605-0.0605"/>
    <path d="m105.1581 126.7932 0.121-0.0604"/>
    <path d="m105.2791 126.7328h0.1814"/>
    <path d="m105.4605 126.7328 0.1209 0.0604"/>
    <path d="m105.5814 126.7932 0.0605 0.121"/>
    <path d="m105.6419 126.9142v0.6652"/>
    <path d="m105.6419 126.9142 0.0605-0.121"/>
    <path d="m105.7024 126.7932 0.1209-0.0604"/>
    <path d="m105.8233 126.7328h0.1815"/>
    <path d="m106.0048 126.7328 0.1209 0.0604"/>
    <path d="m106.1257 126.7932 0.0605 0.121"/>
    <path d="m106.1862 126.9142v0.6652"/>
    <path d="m106.7909 126.7328v1.27"/>
    <path d="m106.7909 126.7932 0.121-0.0604"/>
    <path d="m106.9119 126.7328h0.2419"/>
    <path d="m107.1538 126.7328 0.1209 0.0604"/>
    <path d="m107.2747 126.7932 0.0605 0.0605"/>
    <path d="m107.3352 126.8537 0.0605 0.121"/>
    <path d="m107.3957 126.9747v0.3628"/>
    <path d="m107.3957 127.3375-0.0605 0.121"/>
    <path d="m107.3352 127.4585-0.0605 0.0605"/>
    <path d="m107.2747 127.519-0.1209 0.0604"/>
    <path d="m107.1538 127.5794h-0.2419"/>
    <path d="m106.9119 127.5794-0.121-0.0604"/>
    <path d="m108.4237 127.519-0.1209 0.0604"/>
    <path d="m108.3028 127.5794h-0.2419"/>
    <path d="m108.0609 127.5794-0.121-0.0604"/>
    <path d="m107.9399 127.519-0.0604-0.121"/>
    <path d="m107.8795 127.398v-0.4838"/>
    <path d="m107.8795 126.9142 0.0604-0.121"/>
    <path d="m107.9399 126.7932 0.121-0.0604"/>
    <path d="m108.0609 126.7328h0.2419"/>
    <path d="m108.3028 126.7328 0.1209 0.0604"/>
    <path d="m108.4237 126.7932 0.0605 0.121"/>
    <path d="m108.4842 126.9142v0.1209"/>
    <path d="m108.4842 127.0351-0.6047 0.121"/>
    <path d="m109.0285 127.5794v-0.8466"/>
    <path d="m109.0285 126.9747 0.0605-0.121"/>
    <path d="m109.089 126.8537 0.0605-0.0605"/>
    <path d="m109.1495 126.7932 0.1209-0.0604"/>
    <path d="m109.2704 126.7328h0.121"/>
    <path d="m109.5124 127.7004h0.9676"/>
    <path d="m110.7219 126.4304 0.0604-0.0605"/>
    <path d="m110.7823 126.3699 0.121-0.0605"/>
    <path d="m110.9033 126.3094h0.3024"/>
    <path d="m111.2057 126.3094 0.1209 0.0605"/>
    <path d="m111.3266 126.3699 0.0605 0.0605"/>
    <path d="m111.3871 126.4304 0.0605 0.1209"/>
    <path d="m111.4476 126.5513v0.121"/>
    <path d="m111.4476 126.6723-0.0605 0.1814"/>
    <path d="m111.3871 126.8537-0.7257 0.7257"/>
    <path d="m110.6614 127.5794h0.7862"/>
    <path d="m111.6895 127.7004h0.9676"/>
    <path d="m113.2013 126.3094h0.2419"/>
    <path d="m113.4432 126.3094 0.121 0.0605"/>
    <path d="m113.5642 126.3699 0.1209 0.121"/>
    <path d="m113.6851 126.4909 0.0605 0.2419"/>
    <path d="m113.7456 126.7328v0.4233"/>
    <path d="m113.7456 127.1561-0.0605 0.2419"/>
    <path d="m113.6851 127.398-0.1209 0.121"/>
    <path d="m113.5642 127.519-0.121 0.0604"/>
    <path d="m113.4432 127.5794h-0.2419"/>
    <path d="m113.2013 127.5794-0.1209-0.0604"/>
    <path d="m113.0804 127.519-0.121-0.121"/>
    <path d="m112.9594 127.398-0.0604-0.2419"/>
    <path d="m112.899 127.1561v-0.4233"/>
    <path d="m112.899 126.7328 0.0604-0.2419"/>
    <path d="m112.9594 126.4909 0.121-0.121"/>
    <path d="m113.0804 126.3699 0.1209-0.0605"/>
    <path d="m114.2899 126.7328v1.27"/>
    <path d="m114.2899 126.7932 0.121-0.0604"/>
    <path d="m114.4109 126.7328h0.2419"/>
    <path d="m114.6528 126.7328 0.1209 0.0604"/>
    <path d="m114.7737 126.7932 0.0605 0.0605"/>
    <path d="m114.8342 126.8537 0.0605 0.121"/>
    <path d="m114.8947 126.9747v0.3628"/>
    <path d="m114.8947 127.3375-0.0605 0.121"/>
    <path d="m114.8342 127.4585-0.0605 0.0605"/>
    <path d="m114.7737 127.519-0.1209 0.0604"/>
    <path d="m114.6528 127.5794h-0.2419"/>
    <path d="m114.4109 127.5794-0.121-0.0604"/>
    <path d="m115.9227 127.519-0.1209 0.0604"/>
    <path d="m115.8018 127.5794h-0.2419"/>
    <path d="m115.5599 127.5794-0.121-0.0604"/>
    <path d="m115.4389 127.519-0.0604-0.121"/>
    <path d="m115.3785 127.398v-0.4838"/>
    <path d="m115.3785 126.9142 0.0604-0.121"/>
    <path d="m115.4389 126.7932 0.121-0.0604"/>
    <path d="m115.5599 126.7328h0.2419"/>
    <path d="m115.8018 126.7328 0.1209 0.0604"/>
    <path d="m115.9227 126.7932 0.0605 0.121"/>
    <path d="m115.9832 126.9142v0.1209"/>
    <path d="m115.9832 127.0351-0.6047 0.121"/>
    <path d="m116.5275 126.7328v0.8466"/>
    <path d="m116.5275 126.8537 0.0605-0.0605"/>
    <path d="m116.588 126.7932 0.121-0.0604"/>
    <path d="m116.709 126.7328h0.1814"/>
    <path d="m116.8904 126.7328 0.1209 0.0604"/>
    <path d="m117.0113 126.7932 0.0605 0.121"/>
    <path d="m117.0718 126.9142v0.6652"/>
   </g>
  </g>
  <g transform="translate(-54.533801,-104.6433)" fill="#840000" stroke="#840000">
   <path d="m93.98 127v2.54"/>
  </g>
  <g transform="translate(-54.533801,-104.6433)" fill="#a90000" stroke="#a90000">
   <g transform="rotate(-90,94.234,128.27)">
    <text x="94.234001" y="129.53999" font-size="1.6933px" opacity="0" text-anchor="middle" lengthAdjust="spacingAndGlyphs" textLength="1.4127001">1</text>
   </g>
   <g class="stroked-text">
    <desc>1</desc>
    <path d="m95.5564 127.907v0.7257"/>
    <path d="m95.5564 128.2699h-1.27"/>
    <path d="m94.2864 128.2699 0.1815 0.1209"/>
    <path d="m94.4679 128.3908 0.1209 0.121"/>
    <path d="m94.5888 128.5118 0.0605 0.1209"/>
   </g>
  </g>
  <g transform="translate(-54.533801,-104.6433)" fill="#840000" stroke="#840000">
   <path d="m93.98 124.46v-2.54"/>
  </g>
  <g transform="translate(-54.533801,-104.6433)" fill="#a90000" stroke="#a90000">
   <g transform="rotate(-90,94.234,123.19)">
    <text x="94.234001" y="124.46" font-size="1.6933px" opacity="0" text-anchor="middle" lengthAdjust="spacingAndGlyphs" textLength="1.4127001">2</text>
   </g>
   <g class="stroked-text">
    <desc>2</desc>
    <path d="m94.4074 123.5527-0.0605-0.0604"/>
    <path d="m94.3469 123.4923-0.0605-0.121"/>
    <path d="m94.2864 123.3713v-0.3024"/>
    <path d="m94.2864 123.0689 0.0605-0.1209"/>
    <path d="m94.3469 122.948 0.0605-0.0605"/>
    <path d="m94.4074 122.8875 0.1209-0.0605"/>
    <path d="m94.5283 122.827h0.121"/>
    <path d="m94.6493 122.827 0.1814 0.0605"/>
    <path d="m94.8307 122.8875 0.7257 0.7257"/>
    <path d="m95.5564 123.6132v-0.7862"/>
   </g>
  </g>
 </g>
 <g transform="translate(-54.533801,-104.6433)" fill="#009600" stroke="#009600" stroke-linecap="round" stroke-linejoin="round" stroke-width=".1524">
  <circle cx="83.82" cy="113.03" r=".45719999"/>
  <circle cx="93.980003" cy="115.57" r=".45719999"/>
  <circle cx="78.739998" cy="115.57" r=".45719999"/>
  <circle cx="76.199997" cy="110.49" r=".45719999"/>
  <circle cx="105.41" cy="137.16" r=".45719999"/>
  <circle cx="105.41" cy="118.11" r=".45719999"/>
  <circle cx="81.279999" cy="118.11" r=".45719999"/>
 </g>
</svg>
